<svg width="56" height="56" viewBox="0 0 56 56" fill="none" xmlns="http://www.w3.org/2000/svg">
<circle cx="28" cy="28" r="27.5" fill="#E7ECF0" stroke="#656565"/>
<path d="M21.5958 35.0058H33.5958L32.2958 36.2958C32.1075 36.4841 32.0017 36.7395 32.0017 37.0058C32.0017 37.2721 32.1075 37.5275 32.2958 37.7158C32.4841 37.9041 32.7395 38.0099 33.0058 38.0099C33.2721 38.0099 33.5275 37.9041 33.7158 37.7158L36.7158 34.7158C36.8095 34.6228 36.8839 34.5122 36.9347 34.3904C36.9855 34.2685 37.0116 34.1378 37.0116 34.0058C37.0116 33.8738 36.9855 33.7431 36.9347 33.6212C36.8839 33.4994 36.8095 33.3888 36.7158 33.2958L33.7158 30.2958C33.6228 30.2021 33.5122 30.1277 33.3904 30.0769C33.2685 30.0261 33.1378 30 33.0058 30C32.8738 30 32.7431 30.0261 32.6212 30.0769C32.4994 30.1277 32.3888 30.2021 32.2958 30.2958C32.2021 30.3888 32.1277 30.4994 32.0769 30.6212C32.0261 30.7431 32 30.8738 32 31.0058C32 31.1378 32.0261 31.2685 32.0769 31.3904C32.1277 31.5122 32.2021 31.6228 32.2958 31.7158L33.5958 33.0058H21.5958C21.3909 33.0098 21.1873 32.9734 20.9965 32.8986C20.8057 32.8239 20.6315 32.7123 20.4838 32.5702C20.3362 32.4281 20.218 32.2583 20.136 32.0705C20.0539 31.8828 20.0097 31.6807 20.0058 31.4758V29.0058C20.0058 28.7406 19.9004 28.4862 19.7129 28.2987C19.5254 28.1112 19.271 28.0058 19.0058 28.0058C18.7406 28.0058 18.4862 28.1112 18.2987 28.2987C18.1112 28.4862 18.0058 28.7406 18.0058 29.0058V31.4758C18.0097 31.9433 18.1057 32.4055 18.2882 32.8359C18.4708 33.2663 18.7363 33.6566 19.0697 33.9843C19.403 34.3121 19.7977 34.5711 20.2311 34.7463C20.6646 34.9216 21.1283 35.0098 21.5958 35.0058ZM21.2958 25.7158C21.4841 25.9041 21.7395 26.0099 22.0058 26.0099C22.2721 26.0099 22.5275 25.9041 22.7158 25.7158C22.9041 25.5275 23.0099 25.2721 23.0099 25.0058C23.0099 24.7395 22.9041 24.4841 22.7158 24.2958L21.4158 23.0058H33.4158C33.6207 23.0018 33.8243 23.0382 34.0151 23.113C34.2059 23.1877 34.3801 23.2993 34.5278 23.4414C34.6754 23.5835 34.7936 23.7533 34.8756 23.941C34.9577 24.1288 35.0019 24.3309 35.0058 24.5358V27.0058C35.0058 27.271 35.1112 27.5254 35.2987 27.7129C35.4862 27.9004 35.7406 28.0058 36.0058 28.0058C36.271 28.0058 36.5254 27.9004 36.7129 27.7129C36.9004 27.5254 37.0058 27.271 37.0058 27.0058V24.5358C37.0019 24.0683 36.9059 23.6061 36.7234 23.1757C36.5408 22.7453 36.2753 22.355 35.9419 22.0272C35.6086 21.6995 35.2139 21.4405 34.7805 21.2653C34.347 21.09 33.8833 21.0018 33.4158 21.0058H21.4158L22.7158 19.7158C22.8095 19.6228 22.8839 19.5122 22.9347 19.3904C22.9855 19.2685 23.0116 19.1378 23.0116 19.0058C23.0116 18.8738 22.9855 18.7431 22.9347 18.6212C22.8839 18.4994 22.8095 18.3888 22.7158 18.2958C22.6228 18.2021 22.5122 18.1277 22.3904 18.0769C22.2685 18.0261 22.1378 18 22.0058 18C21.8738 18 21.7431 18.0261 21.6212 18.0769C21.4994 18.1277 21.3888 18.2021 21.2958 18.2958L18.2958 21.2958C18.2021 21.3888 18.1277 21.4994 18.0769 21.6212C18.0261 21.7431 18 21.8738 18 22.0058C18 22.1378 18.0261 22.2685 18.0769 22.3904C18.1277 22.5122 18.2021 22.6228 18.2958 22.7158L21.2958 25.7158Z" fill="#1E1F23"/>
</svg>
