<svg width="51" height="19" viewBox="0 0 51 19" fill="none" xmlns="http://www.w3.org/2000/svg">
<path d="M6.3 15.25V9.73001C6.3 8.43001 5.79 7.69001 4.69 7.69001C3.59 7.69001 3.01 8.36001 3.01 9.61001V15.26H0V1.85001H3V6.16001C3.43 5.35001 4.41 4.86001 5.61 4.86001C7.91 4.86001 9.3 6.31001 9.3 8.93001V15.25H6.3Z" fill="#BEBEBE"/>
<path d="M12.5 18.59L14.09 14.74L10.36 5.20001H13.56L15.57 11.03H15.61L17.53 5.20001H20.71L15.68 18.59H12.49H12.5Z" fill="#BEBEBE"/>
<path d="M21.82 18.59V5.20001H24.64V6.30001H24.69C25.49 5.30001 26.59 4.85001 27.84 4.85001C30.7 4.85001 32.73 7.18001 32.73 10.32C32.73 13.18 30.72 15.59 27.84 15.59C26.66 15.59 25.63 15.23 24.82 14.34V18.59H21.82ZM29.73 10.23C29.73 8.82001 28.64 7.66001 27.2 7.66001C25.76 7.66001 24.7 8.78001 24.7 10.23C24.7 11.68 25.79 12.78 27.22 12.78C28.65 12.78 29.74 11.62 29.74 10.23H29.73Z" fill="#BEBEBE"/>
<path d="M48.01 0H34.48C33.06 0 31.92 1.15 31.92 2.56V5.52C33.06 6.68 33.75 8.35 33.75 10.32C33.75 12.14 33.05 13.75 31.92 14.89V16.1C31.92 17.52 33.07 18.66 34.48 18.66H48.01C49.43 18.66 50.57 17.51 50.57 16.1V2.56C50.57 1.14 49.42 0 48.01 0ZM33.85 4.23V2.81C33.85 2.39 34.19 2.05 34.61 2.05H36.03C36.45 2.05 36.79 2.39 36.79 2.81V4.23C36.79 4.65 36.45 4.99 36.03 4.99H34.61C34.19 4.99 33.85 4.65 33.85 4.23ZM41.28 15.56C38.22 15.56 35.87 13.3 35.87 10.22C35.87 7.42 37.83 5.35 40.41 4.96C40.16 5.48 40 6.06 40 6.68C40 7.13 40.09 7.55 40.23 7.95C39.43 8.37 38.88 9.23 38.88 10.22C38.88 11.6 39.93 12.75 41.29 12.75C42.57 12.75 43.5 11.76 43.66 10.58C43.75 10.58 43.84 10.61 43.93 10.61C44.98 10.61 45.92 10.19 46.63 9.52C46.66 9.74 46.69 9.95 46.69 10.18C46.69 13.33 44.3 15.56 41.28 15.56ZM43.93 9.61C42.31 9.61 41 8.3 41 6.68C41 5.06 42.31 3.75 43.93 3.75C45.55 3.75 46.86 5.06 46.86 6.68C46.86 8.3 45.55 9.61 43.93 9.61Z" fill="#BEBEBE"/>
</svg>
