<svg width="324" height="332" viewBox="0 0 324 332" fill="none" xmlns="http://www.w3.org/2000/svg">
<g filter="url(#filter0_d_60_606)">
<circle cx="162" cy="150" r="150" fill="#E2E7EA"/>
</g>
<circle cx="162" cy="150" r="138" fill="white"/>
<g filter="url(#filter1_d_60_606)">
<circle cx="162" cy="150" r="136" fill="url(#paint0_linear_60_606)"/>
</g>
<g filter="url(#filter2_d_60_606)">
<circle cx="162" cy="150" r="124" fill="url(#paint1_linear_60_606)"/>
</g>
<g filter="url(#filter3_di_60_606)">
<circle cx="162" cy="150" r="91" fill="url(#paint2_linear_60_606)" shape-rendering="crispEdges"/>
<circle cx="162" cy="150" r="92" stroke="url(#paint3_radial_60_606)" stroke-width="2" shape-rendering="crispEdges"/>
</g>
<circle cx="162" cy="150" r="73" fill="#D9D9D9"/>
<path d="M81.01 121.551C81.1696 121.118 81.3605 120.769 81.5826 120.505C81.807 120.234 82.0528 120.037 82.3198 119.914C82.5831 119.782 82.8596 119.718 83.1495 119.721C83.4355 119.715 83.7187 119.764 83.9993 119.868C84.3164 119.985 84.587 120.143 84.811 120.343C85.0373 120.538 85.2079 120.77 85.3228 121.041C85.4316 121.31 85.4817 121.616 85.473 121.959C85.4582 122.3 85.3755 122.675 85.2249 123.083L84.7934 124.254L86.989 125.063L86.5406 126.28L80.1369 123.92L81.01 121.551ZM84.2422 122.648C84.2984 122.496 84.3329 122.346 84.3458 122.198C84.3586 122.05 84.3404 121.912 84.2909 121.783C84.2438 121.648 84.1582 121.523 84.0343 121.408C83.9104 121.293 83.7417 121.196 83.5283 121.118C83.2112 121.001 82.9232 121.002 82.6645 121.121C82.3997 121.239 82.2032 121.471 82.0751 121.819L81.6099 123.081L83.7871 123.883L84.2422 122.648Z" fill="#E4E7EB"/>
<path d="M84.8165 112.392C84.9867 112.056 85.215 111.742 85.5013 111.45C85.7847 111.149 86.123 110.919 86.5161 110.761C86.9093 110.603 87.3573 110.538 87.86 110.567C88.3569 110.593 88.907 110.758 89.5101 111.063C90.0727 111.348 90.5144 111.677 90.8352 112.051C91.1503 112.421 91.3649 112.811 91.4793 113.218C91.5965 113.62 91.6265 114.028 91.5693 114.444C91.5121 114.859 91.3895 115.252 91.2017 115.624C91.0315 115.96 90.8033 116.274 90.517 116.566C90.2307 116.859 89.891 117.084 89.4978 117.242C89.1046 117.4 88.6596 117.466 88.1627 117.44C87.6599 117.412 87.1099 117.246 86.5125 116.944C85.9442 116.656 85.5025 116.327 85.1874 115.956C84.8666 115.583 84.6475 115.195 84.5303 114.793C84.416 114.386 84.3889 113.979 84.449 113.572C84.5062 113.157 84.6287 112.764 84.8165 112.392ZM85.7995 112.89C85.6675 113.151 85.595 113.416 85.5821 113.687C85.5721 113.951 85.6246 114.207 85.7397 114.455C85.849 114.7 86.0179 114.934 86.2464 115.159C86.4779 115.378 86.7647 115.575 87.1069 115.748C87.7912 116.094 88.4083 116.22 88.9582 116.127C89.508 116.034 89.9282 115.7 90.2187 115.126C90.3478 114.871 90.4174 114.611 90.4274 114.347C90.4374 114.082 90.3877 113.828 90.2785 113.583C90.1721 113.332 90.0047 113.095 89.7761 112.87C89.5476 112.645 89.2593 112.444 88.9113 112.268C88.575 112.098 88.2514 111.982 87.9407 111.919C87.6242 111.854 87.3335 111.845 87.0688 111.893C86.7982 111.938 86.555 112.045 86.3391 112.212C86.1232 112.38 85.9433 112.606 85.7995 112.89Z" fill="#E4E7EB"/>
<path d="M94.0264 108.05L95.6611 105.542L96.6085 106.16L94.2655 109.754L88.5487 106.026L89.2569 104.94L94.0264 108.05Z" fill="#E4E7EB"/>
<path d="M100.043 99.8074L98.3307 101.921L99.0021 102.904L98.1611 103.942L94.2707 97.9028L95.308 96.6227L102.022 99.1773L101.144 100.26L100.043 99.8074ZM97.7029 101.023L99.0288 99.3869L95.5632 97.9338L97.7029 101.023Z" fill="#E4E7EB"/>
<path d="M101.175 90.193C101.498 89.8729 101.814 89.6378 102.123 89.4876C102.436 89.3329 102.733 89.2494 103.014 89.237C103.299 89.22 103.565 89.2673 103.813 89.3788C104.056 89.4857 104.275 89.6385 104.472 89.8371C104.797 90.165 104.988 90.529 105.046 90.9292C105.104 91.3201 105.019 91.7425 104.791 92.1964L108.076 92.9642L107.002 94.0274L104.014 93.2405L103.245 94.0019L105.118 95.8932L104.196 96.8056L99.3945 91.956L101.175 90.193ZM101.077 91.8126L102.518 93.2675L103.425 92.3689C103.541 92.2546 103.638 92.1356 103.717 92.0119C103.795 91.8882 103.844 91.762 103.863 91.6334C103.882 91.4956 103.867 91.36 103.817 91.2264C103.767 91.0837 103.669 90.9384 103.523 90.7907C103.29 90.5551 103.044 90.4505 102.787 90.4768C102.525 90.4985 102.264 90.6373 102.006 90.8934L101.077 91.8126Z" fill="#E4E7EB"/>
<path d="M108.516 83.4947C108.812 83.2621 109.152 83.0741 109.535 82.9306C109.919 82.778 110.323 82.7134 110.746 82.7368C111.169 82.7601 111.602 82.8912 112.046 83.13C112.485 83.3637 112.913 83.7465 113.33 84.2784C113.719 84.7745 113.98 85.2597 114.113 85.7341C114.241 86.2033 114.271 86.6467 114.202 87.0642C114.138 87.4778 113.992 87.8606 113.764 88.2127C113.537 88.5647 113.259 88.8691 112.932 89.1258C112.635 89.3585 112.295 89.5465 111.912 89.69C111.529 89.8335 111.126 89.8935 110.703 89.8701C110.28 89.8467 109.849 89.7182 109.409 89.4845C108.966 89.2457 108.538 88.8629 108.125 88.3361C107.731 87.8349 107.471 87.3497 107.342 86.8805C107.21 86.4062 107.176 85.9622 107.239 85.5487C107.309 85.1311 107.456 84.7508 107.683 84.4079C107.911 84.0558 108.188 83.7514 108.516 83.4947ZM109.195 84.3617C108.965 84.5421 108.787 84.7521 108.661 84.9914C108.54 85.2268 108.479 85.481 108.478 85.7541C108.474 86.022 108.527 86.3062 108.639 86.6068C108.756 86.9033 108.933 87.2025 109.17 87.5042C109.643 88.1077 110.148 88.4837 110.686 88.632C111.223 88.7804 111.745 88.656 112.252 88.2589C112.477 88.0824 112.65 87.8765 112.771 87.6412C112.892 87.4058 112.955 87.1542 112.959 86.8862C112.969 86.6143 112.918 86.328 112.806 86.0275C112.695 85.7269 112.518 85.4232 112.278 85.1163C112.045 84.8197 111.801 84.5773 111.546 84.389C111.287 84.1957 111.028 84.0647 110.767 83.9962C110.503 83.9226 110.238 83.916 109.971 83.9763C109.705 84.0367 109.446 84.1651 109.195 84.3617Z" fill="#E4E7EB"/>
<path d="M119.31 84.4145L118.219 85.1153L114.531 79.3729L115.622 78.6722L119.31 84.4145Z" fill="#E4E7EB"/>
<path d="M121.449 75.2859C121.87 75.0669 122.296 74.9147 122.728 74.8292C123.166 74.7407 123.589 74.7441 123.997 74.8392C124.409 74.9256 124.795 75.1127 125.158 75.4004C125.517 75.6824 125.832 76.0829 126.102 76.6018C126.414 77.2015 126.587 77.7452 126.621 78.233C126.655 78.7209 126.596 79.1579 126.446 79.5441C126.298 79.9215 126.078 80.2521 125.786 80.5359C125.497 80.8109 125.185 81.0355 124.85 81.2095L122.688 82.3346L119.538 76.2805L121.449 75.2859ZM121.188 76.6638L123.321 80.7632L124.333 80.2367C124.529 80.1347 124.713 80.0023 124.885 79.8397C125.057 79.677 125.183 79.4758 125.263 79.2361C125.344 78.9964 125.361 78.7127 125.315 78.385C125.275 78.0542 125.141 77.6697 124.913 77.2315C124.763 76.9432 124.59 76.696 124.395 76.4899C124.2 76.2837 123.979 76.1346 123.733 76.0427C123.493 75.9477 123.227 75.9142 122.934 75.9422C122.646 75.9672 122.333 76.0682 121.992 76.2452L121.188 76.6638Z" fill="#E4E7EB"/>
<path d="M136.098 69.0133C136.371 68.9286 136.654 68.875 136.946 68.8524C137.245 68.8278 137.539 68.8525 137.827 68.9265C138.119 68.9923 138.403 69.1154 138.676 69.2959C138.954 69.4683 139.213 69.7113 139.453 70.0247L138.347 70.7353C138.089 70.407 137.805 70.1852 137.497 70.0697C137.188 69.9481 136.831 69.9498 136.427 70.0749C135.862 70.25 135.482 70.5925 135.286 71.1024C135.097 71.6103 135.116 72.2336 135.345 72.9724C135.572 73.7049 135.901 74.2392 136.332 74.5752C136.767 74.903 137.289 74.9726 137.897 74.784C138.357 74.6416 138.685 74.4172 138.883 74.111C139.087 73.8028 139.196 73.4186 139.21 72.9584L140.501 72.9764C140.481 73.3501 140.41 73.692 140.288 74.0019C140.171 74.3037 140.011 74.5778 139.809 74.8243C139.604 75.0647 139.362 75.2723 139.083 75.4474C138.81 75.6205 138.512 75.757 138.189 75.8571C137.835 75.9668 137.457 76.0195 137.054 76.0151C136.658 76.0088 136.269 75.9183 135.888 75.7438C135.512 75.5611 135.163 75.2813 134.842 74.9045C134.525 74.5195 134.269 74.0104 134.072 73.3772C133.884 72.7688 133.81 72.2235 133.851 71.7412C133.89 71.2528 134.01 70.8277 134.211 70.466C134.418 70.1024 134.686 69.8017 135.013 69.564C135.345 69.3181 135.707 69.1346 136.098 69.0133Z" fill="#E4E7EB"/>
<path d="M148.053 72.1314L145.38 72.6324L145.254 73.8164L143.941 74.0624L144.889 66.9415L146.508 66.638L149.969 72.9329L148.599 73.1897L148.053 72.1314ZM145.483 71.5418L147.553 71.1539L145.853 67.8022L145.483 71.5418Z" fill="#E4E7EB"/>
<path d="M160.168 72.0603L158.922 72.136L158.591 66.6864L157.336 72.2325L155.974 72.3153L154.022 67.0423L154.349 72.4142L153.142 72.4875L152.728 65.6755L154.645 65.5589L156.589 70.8714L157.788 65.3677L159.754 65.2482L160.168 72.0603Z" fill="#E4E7EB"/>
<path d="M168.987 66.6677L165.853 66.4772L165.749 68.1899L168.678 68.3681L168.613 69.4385L165.684 69.2604L165.572 71.1094L168.793 71.3053L168.726 72.3952L164.211 72.1206L164.625 65.3086L169.053 65.5778L168.987 66.6677Z" fill="#E4E7EB"/>
<path d="M175.959 66.4807C176.407 66.5564 176.783 66.6757 177.085 66.8387C177.393 67.0027 177.634 67.195 177.808 67.4154C177.988 67.637 178.105 67.8808 178.159 68.147C178.214 68.4067 178.219 68.6744 178.172 68.95C178.096 69.4051 177.912 69.7728 177.62 70.0533C177.337 70.3285 176.944 70.5062 176.443 70.5864L177.737 73.7015L176.247 73.4503L175.142 70.5648L174.074 70.3849L173.632 73.0094L172.353 72.7939L173.488 66.0642L175.959 66.4807ZM174.587 67.3469L174.246 69.3658L175.506 69.5781C175.666 69.6051 175.819 69.6145 175.966 69.6062C176.112 69.598 176.243 69.564 176.358 69.5044C176.481 69.4394 176.583 69.3477 176.662 69.2293C176.749 69.1055 176.809 68.941 176.844 68.736C176.899 68.4091 176.841 68.1488 176.669 67.9551C176.498 67.7549 176.234 67.6246 175.875 67.5641L174.587 67.3469Z" fill="#E4E7EB"/>
<path d="M184.728 74.3389L182.111 73.5967L181.471 74.601L180.186 74.2366L184.205 68.2827L185.791 68.7322L186.086 75.9098L184.745 75.5294L184.728 74.3389ZM182.689 72.6662L184.715 73.2407L184.686 69.483L182.689 72.6662Z" fill="#E4E7EB"/>
<path d="M197.64 76.9882L198.934 77.603L198.491 78.5366L197.196 77.9218L196.548 79.2868L195.456 78.7682L196.104 77.4032L194.81 76.7883L195.253 75.8548L196.548 76.4696L197.196 75.1046L198.288 75.6232L197.64 76.9882Z" fill="#E4E7EB"/>
<path d="M210.969 80.8097C211.347 81.0742 211.636 81.3476 211.835 81.6297C212.04 81.9156 212.168 82.2033 212.219 82.493C212.279 82.781 212.271 83.0648 212.195 83.3444C212.127 83.6224 212.008 83.8839 211.836 84.1289C211.642 84.4058 211.42 84.6271 211.169 84.7928C210.924 84.9622 210.656 85.068 210.365 85.1102C210.077 85.147 209.768 85.1176 209.439 85.0218C209.113 84.9208 208.771 84.7454 208.415 84.4958L207.392 83.7805L206.051 85.6979L204.988 84.9547L208.9 79.3624L210.969 80.8097ZM209.085 83.6562C209.218 83.7493 209.355 83.8209 209.494 83.8709C209.634 83.9209 209.772 83.9384 209.91 83.9235C210.052 83.9122 210.195 83.8613 210.338 83.7708C210.48 83.6802 210.617 83.5417 210.747 83.3553C210.941 83.0783 211.013 82.7996 210.963 82.519C210.918 82.233 210.743 81.9839 210.439 81.7715L209.337 81.0004L208.007 82.9018L209.085 83.6562Z" fill="#E4E7EB"/>
<path d="M218.348 86.5938C218.69 86.8937 218.947 87.1923 219.119 87.4896C219.295 87.7912 219.4 88.0814 219.432 88.3603C219.469 88.6434 219.44 88.9124 219.347 89.1673C219.257 89.4173 219.12 89.6474 218.936 89.8575C218.632 90.2046 218.282 90.421 217.887 90.5069C217.501 90.5921 217.074 90.5374 216.605 90.3425L216.071 93.6732L214.935 92.677L215.509 89.6408L214.695 88.9275L212.941 90.929L211.965 90.0743L216.464 84.9422L218.348 86.5938ZM216.726 86.6107L215.376 88.1503L216.337 88.9922C216.459 89.0993 216.584 89.1878 216.713 89.2576C216.842 89.3274 216.972 89.3673 217.101 89.3772C217.24 89.3865 217.374 89.3615 217.504 89.3023C217.643 89.2425 217.781 89.1344 217.918 88.978C218.136 88.7287 218.223 88.4766 218.179 88.2216C218.139 87.9617 217.982 87.7118 217.708 87.4719L216.726 86.6107Z" fill="#E4E7EB"/>
<path d="M219.229 96.9033L218.332 95.9661L223.265 91.2496L224.161 92.1867L219.229 96.9033Z" fill="#E4E7EB"/>
<path d="M225.314 104.095L224.403 102.951L226.379 97.7915L222.656 100.753L221.915 99.8222L227.256 95.574L228.148 96.6956L226.086 101.949L229.909 98.9084L230.655 99.8469L225.314 104.095Z" fill="#E4E7EB"/>
<path d="M234.766 108.018L233.726 106.369L228.885 109.421L228.194 108.325L233.035 105.272L231.994 103.623L232.926 103.035L235.698 107.431L234.766 108.018Z" fill="#E4E7EB"/>
<path d="M238.736 115.557L237.344 112.743L235.806 113.504L237.107 116.134L236.146 116.61L234.845 113.979L233.184 114.801L234.615 117.693L233.636 118.177L231.631 114.123L237.748 111.097L239.715 115.073L238.736 115.557Z" fill="#E4E7EB"/>
<path d="M242.363 121.514C242.52 121.941 242.603 122.326 242.612 122.669C242.623 123.018 242.576 123.323 242.471 123.584C242.368 123.85 242.215 124.073 242.011 124.252C241.812 124.429 241.582 124.566 241.32 124.662C240.887 124.822 240.477 124.845 240.088 124.732C239.709 124.622 239.359 124.37 239.041 123.975L236.981 126.646L236.458 125.228L238.413 122.835L238.039 121.819L235.541 122.74L235.093 121.523L241.496 119.163L242.363 121.514ZM240.929 120.754L239.008 121.462L239.45 122.66C239.506 122.813 239.574 122.95 239.654 123.073C239.734 123.196 239.828 123.293 239.938 123.364C240.055 123.438 240.185 123.48 240.327 123.49C240.478 123.504 240.651 123.475 240.846 123.403C241.157 123.289 241.354 123.109 241.436 122.863C241.525 122.616 241.507 122.321 241.381 121.98L240.929 120.754Z" fill="#E4E7EB"/>
<path d="M86.8024 173.015C86.8898 173.321 86.9297 173.6 86.9221 173.853C86.9198 174.105 86.8746 174.326 86.7864 174.517C86.6997 174.713 86.578 174.876 86.4212 175.006C86.2644 175.137 86.0806 175.232 85.8695 175.292C85.5688 175.378 85.2885 175.356 85.0285 175.224C84.77 175.099 84.5636 174.895 84.4091 174.614C84.4302 174.768 84.4268 174.926 84.3989 175.088C84.3762 175.248 84.3254 175.4 84.2462 175.542C84.1671 175.684 84.0608 175.812 83.9274 175.924C83.7993 176.035 83.6402 176.117 83.4503 176.172C83.1918 176.245 82.942 176.26 82.7008 176.214C82.4612 176.174 82.2412 176.083 82.0407 175.941C81.8403 175.798 81.6643 175.612 81.5129 175.381C81.3614 175.151 81.2435 174.888 81.1591 174.592C80.9994 174.033 81.0014 173.53 81.165 173.084C81.3353 172.642 81.6413 172.295 82.083 172.043L82.5848 172.961C82.3429 173.093 82.1586 173.277 82.0319 173.513C81.9106 173.747 81.8951 174.022 81.9855 174.339C82.0684 174.629 82.2108 174.848 82.4127 174.996C82.6162 175.149 82.8683 175.182 83.169 175.097C83.4433 175.018 83.6268 174.872 83.7195 174.657C83.8175 174.441 83.8266 174.193 83.7468 173.913L83.5773 173.32L84.3211 173.107L84.4635 173.606C84.4921 173.706 84.532 173.806 84.5833 173.905C84.6398 174.003 84.7091 174.086 84.7912 174.154C84.8734 174.222 84.9695 174.269 85.0795 174.294C85.191 174.325 85.3206 174.319 85.4683 174.277C85.6055 174.238 85.714 174.179 85.7939 174.099C85.8753 174.024 85.9337 173.939 85.9692 173.843C86.0099 173.746 86.0291 173.644 86.0269 173.536C86.0246 173.428 86.0084 173.321 85.9783 173.216C85.9 172.941 85.7655 172.74 85.5748 172.612C85.3909 172.488 85.1713 172.428 84.9158 172.432L84.8017 171.404C85.0037 171.392 85.2049 171.417 85.4054 171.479C85.6111 171.54 85.804 171.637 85.9841 171.768C86.1657 171.904 86.3258 172.075 86.4645 172.281C86.6099 172.491 86.7225 172.735 86.8024 173.015Z" fill="#EBECF0"/>
<path d="M84.2911 179.689C84.3229 179.776 84.3348 179.865 84.3267 179.956C84.3205 180.051 84.2968 180.139 84.2555 180.218C84.2212 180.301 84.1693 180.375 84.0999 180.441C84.0356 180.505 83.957 180.554 83.8642 180.587C83.6836 180.653 83.5055 180.645 83.3298 180.562C83.1593 180.478 83.0413 180.346 82.9759 180.165C82.9422 180.073 82.9285 179.978 82.9347 179.883C82.9427 179.792 82.9639 179.706 82.9982 179.623C83.0395 179.544 83.0923 179.473 83.1566 179.408C83.226 179.342 83.3046 179.293 83.3923 179.262C83.4851 179.228 83.5768 179.215 83.6672 179.223C83.7629 179.229 83.8493 179.251 83.9266 179.287C84.011 179.326 84.0826 179.379 84.1416 179.445C84.2076 179.515 84.2575 179.596 84.2911 179.689Z" fill="#EBECF0"/>
<path d="M87.7504 186.19L88.0926 186.956L87.296 187.312L86.9538 186.546L85.9093 187.012L85.4832 186.057L86.5278 185.591L85.3737 183.006L86.1928 182.64L90.4992 183.485L91.0494 184.717L87.7504 186.19ZM86.6198 183.657L87.3243 185.236L89.6239 184.209L86.6198 183.657Z" fill="#EBECF0"/>
<path d="M90.576 195.712L90.051 194.798L94.0463 192.501L89.3823 193.636L88.8081 192.637L92.0613 189.181L88.1231 191.445L87.6144 190.561L92.6086 187.689L93.4166 189.095L90.1308 192.56L94.7416 191.399L95.5701 192.84L90.576 195.712Z" fill="#EBECF0"/>
<path d="M96.0573 203.517L95.4315 202.67L99.1386 199.932L94.6345 201.591L93.9501 200.664L96.7877 196.86L93.1336 199.559L92.5273 198.738L97.1612 195.316L98.1244 196.62L95.2553 200.437L99.7036 198.758L100.691 200.095L96.0573 203.517Z" fill="#EBECF0"/>
<path d="M107.155 208.507L105.355 206.698L104.229 207.818L105.895 209.493L105.253 210.131L103.588 208.457L101.925 210.111L101.153 209.335L105.237 205.272L107.808 207.857L107.155 208.507Z" fill="#EBECF0"/>
<path d="M111.131 210.859C111.357 211.051 111.531 211.257 111.653 211.477C111.779 211.692 111.855 211.912 111.881 212.136C111.906 212.359 111.883 212.577 111.81 212.789C111.742 213.005 111.627 213.207 111.467 213.395C111.279 213.616 111.053 213.791 110.791 213.921C110.533 214.047 110.236 214.137 109.902 214.191C109.575 214.244 109.209 214.263 108.803 214.249C108.397 214.234 107.953 214.198 107.469 214.139L109.473 215.847L108.913 216.505L105.832 213.878L106.376 213.239C107.011 213.29 107.558 213.324 108.019 213.342C108.487 213.359 108.889 213.349 109.225 213.31C109.56 213.272 109.839 213.203 110.061 213.104C110.282 213.004 110.472 212.863 110.628 212.679C110.806 212.47 110.887 212.265 110.871 212.064C110.859 211.859 110.75 211.669 110.546 211.495C110.065 211.086 109.581 211.155 109.091 211.704L108.271 211.005C108.442 210.804 108.637 210.643 108.857 210.52C109.08 210.393 109.314 210.318 109.557 210.295C109.808 210.271 110.065 210.303 110.329 210.391C110.601 210.479 110.868 210.634 111.131 210.859Z" fill="#EBECF0"/>
<path d="M112.678 217.759C112.753 217.814 112.812 217.882 112.856 217.962C112.903 218.045 112.932 218.131 112.941 218.219C112.958 218.307 112.956 218.398 112.935 218.491C112.917 218.58 112.879 218.664 112.82 218.744C112.706 218.898 112.553 218.99 112.361 219.019C112.173 219.043 112.001 218.998 111.847 218.884C111.767 218.825 111.704 218.754 111.656 218.671C111.612 218.592 111.582 218.508 111.565 218.42C111.556 218.331 111.56 218.242 111.578 218.153C111.599 218.06 111.638 217.976 111.693 217.901C111.752 217.821 111.821 217.76 111.901 217.717C111.984 217.669 112.068 217.639 112.152 217.626C112.244 217.612 112.333 217.616 112.419 217.639C112.512 217.66 112.599 217.7 112.678 217.759Z" fill="#EBECF0"/>
<path d="M116.755 222.27C116.463 222.085 116.23 221.863 116.056 221.603C115.883 221.344 115.774 221.055 115.73 220.734C115.693 220.413 115.725 220.066 115.824 219.693C115.928 219.324 116.107 218.938 116.362 218.534C116.618 218.131 116.889 217.806 117.175 217.559C117.469 217.31 117.766 217.137 118.067 217.042C118.375 216.945 118.682 216.922 118.988 216.972C119.296 217.018 119.596 217.134 119.888 217.318C120.18 217.503 120.413 217.725 120.587 217.984C120.763 218.239 120.871 218.525 120.911 218.842C120.958 219.158 120.93 219.5 120.826 219.869C120.729 220.237 120.554 220.622 120.298 221.026C120.043 221.429 119.768 221.755 119.475 222.004C119.185 222.256 118.885 222.433 118.574 222.535C118.27 222.635 117.964 222.662 117.656 222.616C117.347 222.57 117.047 222.454 116.755 222.27ZM117.226 221.525C117.559 221.737 117.914 221.747 118.288 221.555C118.665 221.359 119.027 220.987 119.373 220.44C119.74 219.861 119.924 219.37 119.925 218.968C119.926 218.566 119.76 218.26 119.426 218.049C119.093 217.837 118.742 217.817 118.375 217.987C118.012 218.16 117.647 218.536 117.28 219.115C116.934 219.662 116.753 220.149 116.737 220.574C116.729 220.997 116.892 221.314 117.226 221.525Z" fill="#EBECF0"/>
<path d="M126.983 227.819C126.539 227.617 126.149 227.347 125.814 227.009C125.487 226.668 125.262 226.266 125.141 225.801L126.08 225.504C126.188 225.824 126.339 226.109 126.533 226.359C126.729 226.604 127.015 226.812 127.389 226.982C127.709 227.126 128.002 227.184 128.269 227.154C128.54 227.126 128.728 226.997 128.832 226.768C128.882 226.658 128.909 226.552 128.912 226.451C128.923 226.348 128.893 226.241 128.822 226.131C128.754 226.015 128.64 225.889 128.48 225.75C128.325 225.613 128.111 225.453 127.839 225.27C127.284 224.899 126.915 224.524 126.731 224.145C126.552 223.769 126.563 223.359 126.765 222.914C126.869 222.684 127.01 222.498 127.189 222.356C127.37 222.209 127.577 222.11 127.811 222.059C128.045 222.009 128.297 222.003 128.569 222.041C128.848 222.077 129.135 222.162 129.429 222.295C129.944 222.528 130.335 222.816 130.601 223.16C130.874 223.5 131.057 223.848 131.149 224.203L130.194 224.439C130.168 224.337 130.129 224.229 130.078 224.115C130.032 224.004 129.966 223.89 129.881 223.773C129.795 223.656 129.686 223.544 129.555 223.436C129.423 223.328 129.257 223.229 129.057 223.138C128.752 223 128.486 222.949 128.259 222.985C128.039 223.018 127.882 223.139 127.787 223.349C127.744 223.444 127.721 223.536 127.717 223.625C127.72 223.71 127.755 223.805 127.823 223.908C127.896 224.013 128.009 224.13 128.161 224.259C128.313 224.389 128.518 224.542 128.775 224.718C129.37 225.12 129.758 225.515 129.937 225.904C130.117 226.292 130.102 226.716 129.894 227.176C129.783 227.421 129.633 227.621 129.442 227.775C129.257 227.932 129.039 228.041 128.788 228.103C128.54 228.159 128.264 228.163 127.96 228.116C127.654 228.074 127.328 227.975 126.983 227.819Z" fill="#EBECF0"/>
<path d="M136.372 231.3L135.205 230.896L134.279 226.326L132.966 230.121L132.017 229.793L133.9 224.349L135.044 224.744L135.951 229.421L137.299 225.525L138.256 225.856L136.372 231.3Z" fill="#EBECF0"/>
<path d="M142.777 232.032L140.548 231.484L140.038 232.35L138.943 232.081L142.157 226.939L143.508 227.271L143.97 233.317L142.827 233.036L142.777 232.032ZM141.008 230.682L142.734 231.106L142.598 227.937L141.008 230.682Z" fill="#EBECF0"/>
<path d="M149.769 228.492C150.154 228.551 150.475 228.649 150.731 228.789C150.993 228.928 151.197 229.098 151.344 229.298C151.498 229.494 151.598 229.712 151.644 229.952C151.697 230.188 151.704 230.43 151.666 230.68C151.623 230.962 151.538 231.212 151.41 231.431C151.287 231.651 151.124 231.832 150.919 231.972C150.715 232.108 150.471 232.201 150.185 232.252C149.901 232.297 149.577 232.292 149.214 232.236L148.172 232.077L147.874 234.03L146.792 233.864L147.662 228.17L149.769 228.492ZM149.407 231.35C149.543 231.371 149.673 231.374 149.797 231.36C149.922 231.345 150.033 231.307 150.131 231.244C150.235 231.182 150.324 231.091 150.398 230.969C150.472 230.847 150.524 230.691 150.553 230.501C150.596 230.219 150.546 229.981 150.404 229.787C150.262 229.588 150.037 229.465 149.728 229.418L148.605 229.246L148.309 231.182L149.407 231.35Z" fill="#EBECF0"/>
<path d="M162.351 230.335L160.705 230.311L160.633 235.141L159.539 235.125L159.611 230.294L157.965 230.27L157.979 229.34L162.365 229.405L162.351 230.335Z" fill="#EBECF0"/>
<path d="M167.458 229.015C167.775 228.991 168.102 229.018 168.438 229.096C168.779 229.169 169.093 229.313 169.379 229.527C169.666 229.742 169.908 230.037 170.108 230.412C170.307 230.782 170.429 231.251 170.473 231.82C170.514 232.351 170.469 232.813 170.34 233.209C170.211 233.598 170.024 233.924 169.78 234.185C169.542 234.445 169.26 234.646 168.935 234.786C168.61 234.927 168.273 235.011 167.923 235.038C167.606 235.062 167.279 235.035 166.943 234.957C166.606 234.878 166.295 234.732 166.009 234.517C165.723 234.303 165.48 234.01 165.281 233.641C165.081 233.265 164.96 232.796 164.916 232.233C164.875 231.696 164.919 231.234 165.049 230.844C165.178 230.449 165.361 230.121 165.6 229.86C165.844 229.599 166.126 229.402 166.446 229.267C166.77 229.126 167.108 229.042 167.458 229.015ZM167.529 229.942C167.283 229.961 167.06 230.025 166.859 230.135C166.664 230.243 166.502 230.393 166.374 230.585C166.245 230.771 166.15 230.995 166.088 231.259C166.031 231.522 166.015 231.815 166.04 232.138C166.09 232.783 166.269 233.284 166.577 233.64C166.885 233.995 167.31 234.153 167.851 234.111C168.092 234.092 168.31 234.029 168.505 233.92C168.7 233.811 168.862 233.664 168.991 233.478C169.125 233.291 169.223 233.067 169.286 232.803C169.348 232.54 169.366 232.244 169.341 231.916C169.316 231.598 169.259 231.314 169.168 231.062C169.076 230.805 168.955 230.592 168.805 230.422C168.653 230.246 168.47 230.117 168.255 230.035C168.039 229.953 167.797 229.922 167.529 229.942Z" fill="#EBECF0"/>
<path d="M177.703 231.463C177.753 231.744 177.76 232.024 177.726 232.303C177.697 232.581 177.611 232.838 177.469 233.075C177.326 233.306 177.119 233.509 176.849 233.685C176.584 233.854 176.243 233.975 175.827 234.049C175.4 234.124 175.032 234.124 174.724 234.05C174.416 233.976 174.155 233.855 173.941 233.686C173.732 233.511 173.567 233.298 173.445 233.047C173.328 232.794 173.245 232.53 173.197 232.255L172.56 228.632L173.638 228.442L174.272 232.049C174.353 232.508 174.505 232.821 174.729 232.988C174.959 233.154 175.274 233.201 175.674 233.131C176.074 233.061 176.35 232.904 176.502 232.66C176.659 232.415 176.699 232.074 176.623 231.636L175.988 228.029L177.066 227.839L177.703 231.463Z" fill="#EBECF0"/>
<path d="M182.182 226.436C182.414 226.371 182.654 226.333 182.902 226.321C183.154 226.308 183.401 226.336 183.643 226.406C183.888 226.469 184.124 226.58 184.35 226.739C184.58 226.891 184.793 227.103 184.988 227.373L184.036 227.945C183.826 227.662 183.593 227.467 183.336 227.362C183.078 227.252 182.777 227.244 182.433 227.34C181.952 227.473 181.622 227.753 181.444 228.178C181.272 228.602 181.273 229.128 181.448 229.757C181.621 230.381 181.885 230.84 182.24 231.135C182.599 231.422 183.037 231.494 183.555 231.35C183.947 231.241 184.229 231.06 184.404 230.807C184.584 230.552 184.685 230.23 184.708 229.842L185.798 229.89C185.771 230.205 185.703 230.491 185.592 230.75C185.486 231.002 185.344 231.229 185.167 231.432C184.988 231.63 184.779 231.799 184.539 231.939C184.304 232.079 184.05 232.186 183.775 232.263C183.474 232.346 183.153 232.381 182.813 232.368C182.479 232.352 182.153 232.266 181.836 232.109C181.523 231.946 181.236 231.701 180.974 231.375C180.717 231.042 180.513 230.606 180.363 230.067C180.22 229.549 180.171 229.087 180.218 228.681C180.263 228.27 180.375 227.914 180.553 227.614C180.737 227.313 180.97 227.066 181.253 226.873C181.539 226.674 181.849 226.528 182.182 226.436Z" fill="#EBECF0"/>
<path d="M193.665 228.731L192.651 229.122L191.743 226.765L189.431 227.656L190.34 230.013L189.319 230.407L187.247 225.031L188.268 224.638L189.1 226.796L191.411 225.905L190.579 223.747L191.593 223.356L193.665 228.731Z" fill="#EBECF0"/>
<path d="M199.188 219.657C199.466 219.503 199.729 219.4 199.977 219.35C200.223 219.296 200.449 219.289 200.654 219.332C200.865 219.372 201.051 219.454 201.214 219.577C201.376 219.7 201.511 219.857 201.618 220.049C201.769 220.322 201.811 220.601 201.742 220.884C201.678 221.164 201.527 221.411 201.288 221.625C201.433 221.57 201.588 221.537 201.752 221.528C201.913 221.513 202.072 221.529 202.229 221.573C202.386 221.618 202.534 221.693 202.673 221.797C202.81 221.897 202.927 222.033 203.023 222.206C203.153 222.441 203.224 222.681 203.235 222.926C203.25 223.168 203.211 223.403 203.118 223.631C203.025 223.858 202.883 224.072 202.693 224.272C202.502 224.472 202.273 224.646 202.004 224.795C201.496 225.078 201.006 225.19 200.534 225.132C200.065 225.066 199.658 224.847 199.312 224.474L200.092 223.777C200.276 223.983 200.497 224.121 200.755 224.19C201.011 224.255 201.283 224.208 201.57 224.048C201.834 223.902 202.015 223.713 202.113 223.483C202.216 223.25 202.191 222.997 202.04 222.724C201.901 222.474 201.717 222.329 201.486 222.287C201.254 222.241 201.01 222.288 200.756 222.429L200.216 222.729L199.841 222.053L200.294 221.801C200.385 221.751 200.473 221.689 200.558 221.616C200.641 221.539 200.706 221.453 200.753 221.358C200.801 221.262 200.825 221.158 200.825 221.045C200.829 220.929 200.795 220.804 200.72 220.67C200.651 220.545 200.568 220.453 200.472 220.394C200.381 220.331 200.285 220.294 200.184 220.281C200.08 220.263 199.975 220.268 199.871 220.294C199.767 220.321 199.666 220.361 199.57 220.414C199.321 220.553 199.156 220.73 199.074 220.944C198.995 221.152 198.986 221.379 199.049 221.627L198.073 221.971C198.015 221.777 197.994 221.576 198.009 221.366C198.022 221.152 198.072 220.942 198.159 220.737C198.251 220.529 198.381 220.335 198.55 220.153C198.721 219.964 198.933 219.799 199.188 219.657Z" fill="#EBECF0"/>
<path d="M204.642 218.105C204.72 218.054 204.804 218.023 204.894 218.01C204.989 217.994 205.079 217.997 205.166 218.02C205.254 218.034 205.338 218.068 205.418 218.121C205.495 218.169 205.56 218.234 205.614 218.317C205.719 218.478 205.751 218.653 205.711 218.843C205.668 219.028 205.566 219.173 205.405 219.278C205.322 219.332 205.233 219.366 205.139 219.382C205.049 219.395 204.96 219.394 204.872 219.379C204.785 219.357 204.703 219.322 204.626 219.274C204.546 219.221 204.481 219.156 204.43 219.077C204.376 218.995 204.343 218.908 204.33 218.818C204.315 218.724 204.316 218.635 204.333 218.551C204.353 218.46 204.388 218.378 204.439 218.306C204.491 218.226 204.559 218.159 204.642 218.105ZM206.257 220.589C206.335 220.538 206.42 220.506 206.509 220.493C206.604 220.478 206.695 220.481 206.781 220.503C206.869 220.518 206.953 220.552 207.033 220.604C207.11 220.652 207.176 220.718 207.23 220.8C207.334 220.961 207.367 221.137 207.326 221.327C207.283 221.512 207.181 221.657 207.02 221.761C206.937 221.815 206.849 221.85 206.754 221.866C206.664 221.878 206.575 221.877 206.487 221.863C206.401 221.84 206.319 221.805 206.242 221.757C206.162 221.705 206.096 221.639 206.045 221.561C205.992 221.478 205.958 221.392 205.946 221.302C205.93 221.207 205.931 221.118 205.949 221.035C205.968 220.944 206.003 220.862 206.054 220.789C206.107 220.709 206.175 220.642 206.257 220.589Z" fill="#EBECF0"/>
<path d="M208.307 213.727C208.544 213.549 208.783 213.424 209.024 213.352C209.262 213.275 209.493 213.249 209.717 213.272C209.94 213.296 210.148 213.366 210.339 213.483C210.535 213.596 210.707 213.752 210.856 213.949C211.031 214.181 211.153 214.439 211.223 214.723C211.29 215.003 211.313 215.312 211.293 215.65C211.275 215.98 211.214 216.342 211.112 216.735C211.01 217.128 210.878 217.554 210.716 218.013L212.818 216.427L213.339 217.117L210.106 219.555L209.601 218.885C209.788 218.277 209.94 217.75 210.057 217.304C210.175 216.85 210.252 216.456 210.287 216.12C210.323 215.784 210.316 215.497 210.267 215.259C210.218 215.021 210.121 214.806 209.975 214.613C209.81 214.394 209.628 214.271 209.428 214.243C209.225 214.21 209.016 214.275 208.801 214.437C208.298 214.817 208.261 215.305 208.69 215.902L207.83 216.551C207.671 216.341 207.556 216.115 207.484 215.874C207.408 215.629 207.386 215.385 207.416 215.142C207.447 214.892 207.534 214.647 207.677 214.409C207.821 214.163 208.031 213.935 208.307 213.727Z" fill="#EBECF0"/>
<path d="M216.279 206.776C216.556 206.501 216.826 206.302 217.09 206.178C217.358 206.051 217.616 205.988 217.864 205.988C218.112 205.981 218.347 206.03 218.568 206.135C218.789 206.233 218.988 206.371 219.166 206.55C219.368 206.752 219.518 206.97 219.619 207.203C219.723 207.432 219.771 207.671 219.762 207.919C219.75 208.163 219.68 208.415 219.551 208.675C219.419 208.931 219.222 209.188 218.962 209.448L218.215 210.191L219.608 211.591L218.832 212.363L214.769 208.28L216.279 206.776ZM218.364 208.765C218.461 208.668 218.541 208.566 218.603 208.457C218.665 208.349 218.701 208.237 218.709 208.12C218.721 208 218.7 207.874 218.646 207.742C218.592 207.61 218.497 207.476 218.361 207.34C218.16 207.137 217.939 207.036 217.699 207.035C217.454 207.031 217.221 207.139 217 207.36L216.195 208.161L217.576 209.549L218.364 208.765Z" fill="#EBECF0"/>
<path d="M224.714 206.163L223.996 206.989L219.648 203.21L220.366 202.384L224.714 206.163Z" fill="#EBECF0"/>
<path d="M223.699 197.995C223.843 197.802 224.009 197.624 224.197 197.463C224.388 197.297 224.6 197.168 224.834 197.075C225.066 196.974 225.32 196.917 225.597 196.903C225.872 196.882 226.17 196.918 226.489 197.012L226.089 198.048C225.75 197.953 225.446 197.943 225.179 198.018C224.907 198.089 224.665 198.268 224.453 198.555C224.155 198.955 224.066 199.378 224.187 199.823C224.311 200.264 224.635 200.679 225.159 201.068C225.679 201.454 226.17 201.654 226.63 201.668C227.09 201.675 227.48 201.462 227.801 201.03C228.043 200.704 228.155 200.388 228.137 200.081C228.122 199.769 228.005 199.453 227.785 199.133L228.674 198.501C228.847 198.766 228.969 199.034 229.04 199.306C229.111 199.57 229.138 199.836 229.123 200.105C229.104 200.371 229.042 200.633 228.939 200.891C228.84 201.145 228.705 201.387 228.535 201.616C228.348 201.867 228.117 202.091 227.84 202.289C227.567 202.483 227.257 202.615 226.91 202.685C226.563 202.749 226.186 202.732 225.779 202.635C225.372 202.531 224.943 202.312 224.494 201.978C224.062 201.657 223.74 201.323 223.528 200.974C223.311 200.621 223.181 200.272 223.138 199.926C223.097 199.575 223.13 199.236 223.235 198.911C223.338 198.578 223.493 198.273 223.699 197.995Z" fill="#EBECF0"/>
<path d="M229.686 190.858L228.83 192.264L232.957 194.775L232.388 195.711L228.261 193.199L227.406 194.605L226.611 194.122L228.892 190.375L229.686 190.858Z" fill="#EBECF0"/>
<path d="M235.435 185.704C235.691 185.83 235.921 185.989 236.126 186.181C236.333 186.369 236.49 186.59 236.598 186.844C236.7 187.097 236.742 187.383 236.725 187.705C236.705 188.019 236.601 188.366 236.415 188.745C236.224 189.134 236.007 189.431 235.766 189.636C235.524 189.841 235.272 189.98 235.01 190.053C234.745 190.119 234.476 190.126 234.2 190.077C233.928 190.022 233.666 189.933 233.415 189.809L230.114 188.186L230.597 187.204L233.883 188.82C234.302 189.026 234.644 189.087 234.911 189.005C235.181 188.917 235.405 188.691 235.584 188.327C235.763 187.963 235.799 187.647 235.692 187.38C235.587 187.109 235.335 186.875 234.937 186.679L231.651 185.062L232.134 184.08L235.435 185.704Z" fill="#EBECF0"/>
<path d="M234.03 179.486C234.167 179.127 234.329 178.836 234.514 178.613C234.701 178.385 234.9 178.218 235.111 178.111C235.324 177.998 235.546 177.942 235.775 177.941C235.999 177.939 236.221 177.98 236.442 178.064C236.805 178.203 237.079 178.417 237.263 178.704C237.444 178.985 237.525 179.339 237.509 179.767L240.302 179.214L239.846 180.406L237.274 180.841L236.948 181.694L239.047 182.496L238.656 183.519L233.275 181.461L234.03 179.486ZM234.519 180.765L236.133 181.382L236.518 180.375C236.567 180.247 236.601 180.122 236.618 180C236.636 179.877 236.629 179.763 236.599 179.657C236.566 179.545 236.507 179.446 236.422 179.361C236.334 179.268 236.208 179.191 236.044 179.128C235.782 179.028 235.557 179.033 235.368 179.143C235.174 179.251 235.023 179.448 234.913 179.735L234.519 180.765Z" fill="#EBECF0"/>
<path d="M237.558 171.568L236.83 174.116L238.223 174.513L238.903 172.132L239.774 172.38L239.093 174.762L240.597 175.191L241.345 172.572L242.231 172.825L241.183 176.497L235.643 174.915L236.672 171.314L237.558 171.568Z" fill="#EBECF0"/>
<defs>
<filter id="filter0_d_60_606" x="0" y="0" width="324" height="332" filterUnits="userSpaceOnUse" color-interpolation-filters="sRGB">
<feFlood flood-opacity="0" result="BackgroundImageFix"/>
<feColorMatrix in="SourceAlpha" type="matrix" values="0 0 0 0 0 0 0 0 0 0 0 0 0 0 0 0 0 0 127 0" result="hardAlpha"/>
<feMorphology radius="25" operator="erode" in="SourceAlpha" result="effect1_dropShadow_60_606"/>
<feOffset dy="20"/>
<feGaussianBlur stdDeviation="18.5"/>
<feComposite in2="hardAlpha" operator="out"/>
<feColorMatrix type="matrix" values="0 0 0 0 0 0 0 0 0 0 0 0 0 0 0 0 0 0 0.25 0"/>
<feBlend mode="normal" in2="BackgroundImageFix" result="effect1_dropShadow_60_606"/>
<feBlend mode="normal" in="SourceGraphic" in2="effect1_dropShadow_60_606" result="shape"/>
</filter>
<filter id="filter1_d_60_606" x="14" y="14" width="296" height="304" filterUnits="userSpaceOnUse" color-interpolation-filters="sRGB">
<feFlood flood-opacity="0" result="BackgroundImageFix"/>
<feColorMatrix in="SourceAlpha" type="matrix" values="0 0 0 0 0 0 0 0 0 0 0 0 0 0 0 0 0 0 127 0" result="hardAlpha"/>
<feMorphology radius="25" operator="erode" in="SourceAlpha" result="effect1_dropShadow_60_606"/>
<feOffset dy="20"/>
<feGaussianBlur stdDeviation="18.5"/>
<feComposite in2="hardAlpha" operator="out"/>
<feColorMatrix type="matrix" values="0 0 0 0 0 0 0 0 0 0 0 0 0 0 0 0 0 0 0.25 0"/>
<feBlend mode="normal" in2="BackgroundImageFix" result="effect1_dropShadow_60_606"/>
<feBlend mode="normal" in="SourceGraphic" in2="effect1_dropShadow_60_606" result="shape"/>
</filter>
<filter id="filter2_d_60_606" x="26" y="26" width="272" height="280" filterUnits="userSpaceOnUse" color-interpolation-filters="sRGB">
<feFlood flood-opacity="0" result="BackgroundImageFix"/>
<feColorMatrix in="SourceAlpha" type="matrix" values="0 0 0 0 0 0 0 0 0 0 0 0 0 0 0 0 0 0 127 0" result="hardAlpha"/>
<feMorphology radius="25" operator="erode" in="SourceAlpha" result="effect1_dropShadow_60_606"/>
<feOffset dy="20"/>
<feGaussianBlur stdDeviation="18.5"/>
<feComposite in2="hardAlpha" operator="out"/>
<feColorMatrix type="matrix" values="0 0 0 0 0 0 0 0 0 0 0 0 0 0 0 0 0 0 0.25 0"/>
<feBlend mode="normal" in2="BackgroundImageFix" result="effect1_dropShadow_60_606"/>
<feBlend mode="normal" in="SourceGraphic" in2="effect1_dropShadow_60_606" result="shape"/>
</filter>
<filter id="filter3_di_60_606" x="69" y="57" width="186" height="187" filterUnits="userSpaceOnUse" color-interpolation-filters="sRGB">
<feFlood flood-opacity="0" result="BackgroundImageFix"/>
<feColorMatrix in="SourceAlpha" type="matrix" values="0 0 0 0 0 0 0 0 0 0 0 0 0 0 0 0 0 0 127 0" result="hardAlpha"/>
<feMorphology radius="1" operator="erode" in="SourceAlpha" result="effect1_dropShadow_60_606"/>
<feOffset dy="2"/>
<feComposite in2="hardAlpha" operator="out"/>
<feColorMatrix type="matrix" values="0 0 0 0 1 0 0 0 0 1 0 0 0 0 1 0 0 0 1 0"/>
<feBlend mode="normal" in2="BackgroundImageFix" result="effect1_dropShadow_60_606"/>
<feBlend mode="normal" in="SourceGraphic" in2="effect1_dropShadow_60_606" result="shape"/>
<feColorMatrix in="SourceAlpha" type="matrix" values="0 0 0 0 0 0 0 0 0 0 0 0 0 0 0 0 0 0 127 0" result="hardAlpha"/>
<feMorphology radius="1.5" operator="dilate" in="SourceAlpha" result="effect2_innerShadow_60_606"/>
<feOffset dy="2"/>
<feGaussianBlur stdDeviation="0.25"/>
<feComposite in2="hardAlpha" operator="arithmetic" k2="-1" k3="1"/>
<feColorMatrix type="matrix" values="0 0 0 0 1 0 0 0 0 1 0 0 0 0 1 0 0 0 1 0"/>
<feBlend mode="normal" in2="shape" result="effect2_innerShadow_60_606"/>
</filter>
<linearGradient id="paint0_linear_60_606" x1="162" y1="14" x2="162" y2="286" gradientUnits="userSpaceOnUse">
<stop stop-color="#1B1E22"/>
<stop offset="1" stop-color="#1F2024"/>
</linearGradient>
<linearGradient id="paint1_linear_60_606" x1="162" y1="26" x2="162" y2="274" gradientUnits="userSpaceOnUse">
<stop stop-color="#27282C"/>
<stop offset="1" stop-color="#1D1E22"/>
</linearGradient>
<linearGradient id="paint2_linear_60_606" x1="162" y1="59" x2="162" y2="241" gradientUnits="userSpaceOnUse">
<stop stop-color="#222328"/>
<stop offset="0.0677083" stop-color="#282832"/>
<stop offset="1" stop-color="#2B3036"/>
</linearGradient>
<radialGradient id="paint3_radial_60_606" cx="0" cy="0" r="1" gradientUnits="userSpaceOnUse" gradientTransform="translate(162 218) rotate(90) scale(23)">
<stop offset="0.99541"/>
<stop offset="1" stop-opacity="0.43"/>
</radialGradient>
</defs>
</svg>
