<svg width="105" height="21" viewBox="0 0 105 21" fill="none" xmlns="http://www.w3.org/2000/svg">
<path d="M5.06338 15.1945L0 10.1311L5.06338 5.06774L10.1268 0.00436401L15.1901 5.06774L20.2515 10.1311L15.1881 15.1945C12.397 17.9856 10.1247 20.2579 10.1247 20.2579C10.098 20.2579 7.82373 17.9836 5.06338 15.1945Z" fill="#FDC509"/>
<path d="M5.06338 15.1945L0 10.1311L5.06338 5.06774L10.1268 0.00436401L15.1901 5.06774L20.2515 10.1311L15.1881 15.1945C12.397 17.9856 10.1247 20.2579 10.1247 20.2579C10.098 20.2579 7.82373 17.9836 5.06338 15.1945ZM5.06338 11.8005L6.73272 10.1311L5.06338 8.46179L3.39404 6.79245L1.72471 8.46179L0.0574219 10.1311L1.72676 11.8005C2.64756 12.7213 3.39609 13.4698 3.4248 13.4698C3.39404 13.4677 4.14258 12.7192 5.06338 11.8005Z" fill="#A2CD55"/>
<path d="M8.37128 18.5021C7.42177 17.5526 6.67324 16.7754 6.70195 16.8041C6.75937 16.8615 6.90293 16.718 8.42871 15.1922L10.098 13.5229L8.42871 11.8535C7.50791 10.9327 6.75937 10.1842 6.75937 10.1555C6.75937 10.1268 6.75937 10.1268 6.73066 10.1268C6.70195 10.1268 5.95341 9.37822 5.03261 8.45742L3.36328 6.78808L6.75732 3.39404L10.1227 0L15.186 5.06338L20.2515 10.1309L15.1881 15.1942C12.397 17.9853 10.1247 20.2576 10.1247 20.2576C10.098 20.2576 9.3208 19.4517 8.37128 18.5021Z" fill="#979C8F"/>
<path d="M8.42871 18.5309L6.75937 16.8615L10.096 13.4962L13.4347 10.1309L11.7653 8.46154L10.096 6.7922L8.4 8.49025L6.70195 10.1883L5.03261 8.51896L3.36328 6.84962L6.6999 3.48429C8.5415 1.64269 10.0652 0.118958 10.0652 0.118958C10.0939 0.118958 12.3662 2.39122 15.1286 5.15363L20.1633 10.1883L17.6613 12.719C15.4465 14.9625 10.1247 20.2556 10.096 20.2556C10.098 20.2002 9.34951 19.4517 8.42871 18.5309Z" fill="#936BAC"/>
<path d="M8.4287 18.5309L6.75936 16.8615L11.794 11.8269L16.8287 6.79219L18.5267 8.49024L20.2248 10.1883L17.7228 12.7189C15.508 14.9625 10.1862 20.2556 10.1575 20.2556C10.098 20.2002 9.3495 19.4517 8.4287 18.5309ZM5.06337 8.46152L3.39403 6.79219L6.73065 3.42686C8.57225 1.58525 10.096 0.0615234 10.096 0.0615234C10.1247 0.0615234 10.8732 0.810058 11.794 1.73086L13.4634 3.40019L10.098 6.76553L6.73065 10.1309L5.06337 8.46152Z" fill="#69BF7A"/>
<path d="M11.794 15.1942C10.9019 14.3021 10.1534 13.5249 10.1534 13.4962C10.1534 13.4675 11.6484 11.9438 13.49 10.1021L16.8266 6.76553L18.5247 8.46357L20.2227 10.1616L16.8861 13.4982C15.0445 15.3398 13.5208 16.8349 13.4921 16.8349C13.4634 16.8349 12.6861 16.115 11.794 15.1942ZM5.06337 8.46152L3.39403 6.79219L6.73065 3.42686C8.57225 1.58525 10.096 0.0615234 10.096 0.0615234C10.1247 0.0615234 10.8732 0.810058 11.794 1.73086L13.4634 3.40019L10.098 6.76553L6.73065 10.1309L5.06337 8.46152Z" fill="#EF594E"/>
<path d="M11.794 15.1942C10.9019 14.3021 10.1534 13.5249 10.1534 13.4962C10.1534 13.4675 11.6484 11.9437 13.49 10.1021L16.8266 6.76552L18.5247 8.46357L20.2227 10.1616L16.8861 13.4982C15.0445 15.3398 13.5208 16.8349 13.4921 16.8349C13.4634 16.8349 12.6861 16.115 11.794 15.1942ZM5.06337 8.46152L3.39403 6.79218L5.09208 5.09413L6.79013 3.39609L8.43075 5.03671C9.32284 5.9288 10.0714 6.70605 10.1001 6.73476C10.1288 6.79218 9.78427 7.16542 8.45946 8.46152L6.78807 10.1309L5.06337 8.46152Z" fill="#E7891B"/>
<path d="M11.7941 15.1942C10.902 14.3022 10.1534 13.5249 10.1534 13.4962C10.1534 13.4675 11.6485 11.9438 13.4901 10.1022L16.8267 6.76553L18.5247 8.46358L20.2228 10.1616L16.8861 13.4983C15.0445 15.3399 13.5208 16.8349 13.4921 16.8349C13.4634 16.8349 12.6861 16.115 11.7941 15.1942Z" fill="#0094D3"/>
<path d="M11.7941 15.1942C10.902 14.3022 10.1534 13.5249 10.1534 13.4962C10.1534 13.4675 10.902 12.6902 11.8228 11.7982L13.4921 10.1288L15.1901 11.8269L16.8882 13.5249L15.2189 15.1942C14.2981 16.115 13.5495 16.8636 13.5208 16.8636C13.4921 16.8615 12.6861 16.115 11.7941 15.1942Z" fill="#01B4B2"/>
<path d="M40.505 18.1863C38.7782 17.9566 37.3119 17.1507 36.305 15.8853C35.1258 14.419 34.6644 12.3765 35.0397 10.4774C35.4416 8.52099 36.709 6.88242 38.4911 6.04775C40.6485 5.0121 43.2961 5.21308 45.2218 6.50712C45.6524 6.79423 46.2861 7.39921 46.6307 7.82988C48.097 9.7289 48.3861 12.4318 47.3505 14.6467C46.4297 16.6031 44.5594 17.9259 42.2584 18.213C41.8852 18.2725 40.9356 18.2437 40.505 18.1863ZM42.2871 15.5101C43.7821 15.1081 44.8178 13.6397 44.7891 11.8576C44.7891 9.75761 43.5237 8.23388 41.6534 8.08827C39.5534 7.94472 37.9415 9.70019 38.0584 12.0586C38.1445 13.8715 39.2376 15.2517 40.7921 15.5388C41.194 15.6249 41.9139 15.5962 42.2871 15.5101ZM57.0732 18.1863C56.3821 18.0715 55.7792 17.8705 55.2604 17.5526C54.8584 17.3229 54.2247 16.6892 53.995 16.2873C53.4475 15.3378 53.3039 14.2447 53.5644 13.1517C53.9376 11.6279 55.205 10.5636 57.0445 10.1883C57.6782 10.0734 58.1376 10.0447 60.0079 10.0447H61.8208V9.90117C61.8208 9.49921 61.5911 8.98037 61.2445 8.66455C60.9861 8.40615 60.5247 8.14775 60.1228 8.05956C59.3455 7.85859 58.3386 7.91601 57.3604 8.17441C56.7267 8.34667 55.8079 8.75068 54.9158 9.23876L54.5713 9.43974V7.8873C54.5713 6.4497 54.5713 6.33486 54.6287 6.30409C54.6574 6.30409 54.9732 6.18925 55.3198 6.07441C56.4416 5.67246 57.2763 5.49814 58.3693 5.41201C60.5268 5.23974 62.3971 5.78525 63.4901 6.87831C64.1238 7.51201 64.4971 8.22978 64.7555 9.26542L64.8416 9.63867V13.8387V18.0387H63.3179H61.7941V17.2614C61.7941 16.8308 61.7941 16.4842 61.7654 16.4842C61.7654 16.4842 61.6219 16.599 61.4496 16.7713C60.6149 17.5772 59.7229 18.0366 58.6585 18.1802C58.3406 18.2725 57.4772 18.2437 57.0732 18.1863ZM59.6921 15.4813C60.2089 15.3378 60.5555 15.1368 60.9287 14.7615C61.302 14.3862 61.505 14.0704 61.6772 13.5536C61.7921 13.2378 61.9069 12.6328 61.9069 12.4031V12.2883H60.1228C58.5703 12.2883 58.3099 12.317 58.0802 12.3744C57.102 12.6328 56.6139 13.2091 56.6139 14.1012C56.6139 14.7349 56.8723 15.1655 57.4198 15.3952C57.8218 15.5675 58.0535 15.6249 58.7426 15.5962C59.2881 15.5962 59.405 15.5675 59.6921 15.4813ZM79.1089 18.215C76.6644 17.9279 74.6505 16.4021 73.8445 14.1873C72.7515 11.2526 73.8445 7.94472 76.4326 6.36357C77.3247 5.81601 78.3029 5.50019 79.4821 5.41406C80.3168 5.35663 81.3237 5.47148 82.1584 5.72988C82.6752 5.90214 83.4812 6.30615 83.8852 6.59326C85.3515 7.65761 86.2723 9.21005 86.4732 11.0229C86.5307 11.511 86.502 12.5467 86.4158 12.9794C85.899 15.7992 83.7683 17.8131 80.8931 18.1863C80.4624 18.2437 79.5416 18.2725 79.1089 18.215ZM80.8069 15.5101C81.3237 15.3665 81.8426 15.0507 82.2445 14.6467C82.6752 14.1873 82.9931 13.611 83.1653 12.9773C83.2802 12.5467 83.3089 11.5972 83.2515 11.1357C82.9931 9.58329 82.0436 8.48818 80.6921 8.17236C80.2901 8.08622 79.4842 8.08622 79.1089 8.20107C78.102 8.45947 77.296 9.17929 76.8653 10.1862C76.6356 10.7338 76.5208 11.4803 76.5495 12.0852C76.6644 13.9268 77.7287 15.2496 79.3406 15.5654C79.7426 15.6249 80.4624 15.5962 80.8069 15.5101ZM97.205 18.1863C95.2198 17.8992 93.6674 16.7487 92.7753 14.9645C91.9406 13.2952 91.8258 11.3695 92.4021 9.55663C93.0645 7.54277 94.5882 6.07646 96.5446 5.58632C97.1209 5.44277 97.4367 5.41406 98.1278 5.41406C98.6446 5.41406 98.8477 5.44277 99.1348 5.50019C100.056 5.70117 100.747 6.07646 101.551 6.79423L101.895 7.13876V4.46249V1.78622H103.448H105V9.92782V18.0694H103.476H101.953V17.2922C101.953 16.8615 101.953 16.5149 101.924 16.5149C101.924 16.5149 101.752 16.6585 101.551 16.8308C100.946 17.407 100.17 17.8664 99.4793 18.0674C98.8436 18.2437 97.9228 18.3012 97.205 18.1863ZM99.4772 15.5101C100.656 15.1942 101.577 14.2447 101.893 12.9507C102.123 12.0012 102.037 10.8507 101.606 10.016C101.001 8.77939 99.9079 8.08827 98.5852 8.08827C97.1189 8.08827 95.9376 8.95165 95.4208 10.418C95.2198 10.9655 95.1337 11.712 95.2198 12.2883C95.3347 13.2952 95.6505 13.9863 96.2842 14.618C96.7723 15.106 97.3198 15.4239 97.9822 15.5388C98.3555 15.6249 99.102 15.5962 99.4772 15.5101ZM21.9782 18.0428C21.9782 18.0428 21.9495 14.3596 21.9495 9.90117V1.78828H25.401C29.0247 1.78828 29.3139 1.78828 30.0891 1.96054C31.3831 2.21894 32.3613 2.70908 33.1386 3.51298C33.5692 3.94365 33.8297 4.31894 34.0594 4.77831C34.8366 6.36152 34.8079 8.54765 34.0307 10.1001C33.7723 10.6169 33.5426 10.9348 33.0812 11.3941C32.1316 12.3436 30.9237 12.8892 29.2544 13.1209C29.0821 13.1496 28.1613 13.1783 27.0396 13.1783L25.1118 13.207V15.6516V18.0961H23.5286C22.7268 18.0715 22.0069 18.0715 21.9782 18.0428ZM28.9119 10.3605C30.4356 10.1021 31.299 9.12392 31.3852 7.59814C31.4713 5.98622 30.6366 4.92187 29.0555 4.57734C28.7684 4.51992 28.5674 4.49121 26.9555 4.49121L25.1713 4.46249V7.42587V10.418H26.8981C28.2495 10.418 28.6515 10.418 28.9119 10.3605ZM49.2208 18.0428C49.2208 18.0428 49.1921 14.3596 49.1921 9.90117V1.78828H50.7445H52.297V9.92988V18.0715H50.7732C49.9406 18.0715 49.2208 18.0715 49.2208 18.0428ZM66.7119 18.0428C66.7119 18.0428 66.6832 15.2229 66.6832 11.8002V5.58632H68.2356H69.7881V6.36357V7.14081L70.1326 6.825C71.1396 5.87548 72.0029 5.50224 73.3831 5.44482L73.9307 5.41611V6.88242V8.34872L73.3831 8.37743C71.0821 8.49228 70.0465 9.29824 69.8455 11.1398C69.8168 11.3695 69.8168 12.7518 69.8168 14.7636V18.0428H68.2931C67.4297 18.0715 66.7119 18.0715 66.7119 18.0428ZM87.7406 11.8289V5.58632H89.2931H90.8455V11.8289V18.0715H89.2931H87.7406V11.8289ZM87.6832 3.05361V1.78828H89.2664H90.8496V3.05361V4.31894H89.2664H87.6832V3.05361Z" fill="#221E1F"/>
</svg>
