<?xml version="1.0" encoding="utf-8" ?>
<svg width="96" height="18" viewBox="0 0 96 18" fill="none" xmlns="http://www.w3.org/2000/svg">
<path d="M5.18 3.2C6.16667 3.2 7.02 3.35333 7.74 3.66C8.46 3.95333 9.06667 4.33333 9.56 4.8L8.18 6.28C7.75333 5.92 7.29333 5.64667 6.8 5.46C6.32 5.26 5.8 5.16 5.24 5.16C4.61333 5.16 4.14667 5.26 3.84 5.46C3.54667 5.66 3.4 5.92667 3.4 6.26C3.4 6.44667 3.43333 6.60667 3.5 6.74C3.58 6.86 3.71333 6.97333 3.9 7.08C4.08667 7.17333 4.34667 7.26 4.68 7.34C5.01333 7.42 5.44 7.50667 5.96 7.6C6.6 7.70667 7.16 7.84667 7.64 8.02C8.12 8.19333 8.52 8.41333 8.84 8.68C9.16 8.94667 9.4 9.26667 9.56 9.64C9.72 10 9.8 10.4333 9.8 10.94C9.8 11.9133 9.39333 12.7133 8.58 13.34C7.78 13.9533 6.62 14.26 5.1 14.26C3.98 14.26 3.01333 14.1 2.2 13.78C1.4 13.4467 0.72 13 0.16 12.44L1.6 10.88C2.06667 11.3467 2.58 11.6933 3.14 11.92C3.7 12.1467 4.3 12.26 4.94 12.26C5.7 12.26 6.25333 12.1533 6.6 11.94C6.96 11.7133 7.14 11.42 7.14 11.06C7.14 10.8733 7.10667 10.7133 7.04 10.58C6.98667 10.4333 6.86 10.3 6.66 10.18C6.47333 10.06 6.2 9.95333 5.84 9.86C5.49333 9.76667 5.02667 9.66667 4.44 9.56C3.18667 9.34667 2.26 8.98667 1.66 8.48C1.07333 7.97333 0.78 7.28 0.78 6.4C0.78 5.89333 0.886667 5.44667 1.1 5.06C1.32667 4.66 1.63333 4.32667 2.02 4.06C2.42 3.78 2.88667 3.56667 3.42 3.42C3.95333 3.27333 4.54 3.2 5.18 3.2ZM17.0158 3.2C18.1758 3.2 19.0558 3.55333 19.6558 4.26C20.2691 4.95333 20.5758 5.94 20.5758 7.22V14H18.0158V8.02C18.0158 7.19333 17.8958 6.54667 17.6558 6.08C17.4158 5.6 16.9424 5.36 16.2358 5.36C15.8891 5.36 15.5758 5.42667 15.2958 5.56C15.0158 5.69333 14.7691 5.88667 14.5558 6.14C14.3424 6.38 14.1758 6.67333 14.0558 7.02C13.9491 7.35333 13.8958 7.72667 13.8958 8.14V14H11.3358V3.46H13.8358V4.82C14.2358 4.24667 14.7024 3.83333 15.2358 3.58C15.7824 3.32667 16.3758 3.2 17.0158 3.2ZM27.0802 3.2C27.8668 3.2 28.5335 3.27333 29.0802 3.42C29.6268 3.56667 30.0735 3.78667 30.4202 4.08C30.7668 4.36 31.0135 4.70667 31.1602 5.12C31.3202 5.53333 31.4002 6 31.4002 6.52V11.7C31.4002 12.1133 31.4202 12.5067 31.4602 12.88C31.5135 13.2533 31.6135 13.6267 31.7602 14H29.1802C29.0468 13.6667 28.9468 13.3 28.8802 12.9C28.4802 13.4067 27.9935 13.76 27.4202 13.96C26.8602 14.16 26.3002 14.26 25.7402 14.26C25.1802 14.26 24.6735 14.18 24.2202 14.02C23.7802 13.86 23.4068 13.6333 23.1002 13.34C22.8068 13.0467 22.5802 12.7067 22.4202 12.32C22.2602 11.9333 22.1802 11.5067 22.1802 11.04C22.1802 10.0667 22.5068 9.28 23.1602 8.68C23.8268 8.06667 24.9335 7.66667 26.4802 7.48L28.8402 7.18V6.7C28.8402 6.08667 28.7135 5.66 28.4602 5.42C28.2202 5.18 27.7402 5.06 27.0202 5.06C26.3535 5.06 25.8735 5.17333 25.5802 5.4C25.2868 5.62667 25.1335 6.02 25.1202 6.58H22.6002C22.6268 5.43333 23.0402 4.58667 23.8402 4.04C24.6535 3.48 25.7335 3.2 27.0802 3.2ZM27.1402 9.14C26.3002 9.24667 25.7002 9.42667 25.3402 9.68C24.9802 9.93333 24.8002 10.3133 24.8002 10.82C24.8002 11.22 24.9202 11.5533 25.1602 11.82C25.4135 12.0733 25.8202 12.2 26.3802 12.2C26.7135 12.2 27.0268 12.1467 27.3202 12.04C27.6135 11.9333 27.8735 11.7867 28.1002 11.6C28.3268 11.4133 28.5068 11.1867 28.6402 10.92C28.7735 10.6533 28.8402 10.36 28.8402 10.04V8.9L27.1402 9.14ZM39.1605 3.2C39.8538 3.2 40.4871 3.34 41.0605 3.62C41.6338 3.88667 42.1205 4.26 42.5205 4.74C42.9338 5.22 43.2471 5.8 43.4605 6.48C43.6871 7.14667 43.8005 7.88 43.8005 8.68C43.8005 9.48 43.6871 10.22 43.4605 10.9C43.2471 11.58 42.9405 12.1733 42.5405 12.68C42.1405 13.1733 41.6538 13.56 41.0805 13.84C40.5071 14.12 39.8605 14.26 39.1405 14.26C38.5005 14.26 37.9271 14.1467 37.4205 13.92C36.9271 13.6933 36.5138 13.3667 36.1805 12.94V17.3H33.6405V3.46H36.1405V4.58C36.5405 4.07333 37.0005 3.72 37.5205 3.52C38.0538 3.30667 38.6005 3.2 39.1605 3.2ZM38.5805 5.28C37.8205 5.28 37.2071 5.56667 36.7405 6.14C36.2871 6.7 36.0605 7.55333 36.0605 8.7C36.0605 9.3 36.1205 9.82 36.2405 10.26C36.3738 10.7 36.5538 11.06 36.7805 11.34C37.0071 11.62 37.2738 11.8333 37.5805 11.98C37.8871 12.1133 38.2205 12.18 38.5805 12.18C39.3405 12.18 39.9538 11.88 40.4205 11.28C40.9005 10.68 41.1405 9.81333 41.1405 8.68C41.1405 7.62667 40.9205 6.8 40.4805 6.2C40.0538 5.58667 39.4205 5.28 38.5805 5.28ZM48.5145 3.56H51.1345V5.44H48.5145V10.86C48.5145 11.3 48.6012 11.6267 48.7745 11.84C48.9612 12.0533 49.2945 12.16 49.7745 12.16C50.0679 12.16 50.3479 12.14 50.6145 12.1C50.8812 12.0467 51.1279 11.9867 51.3545 11.92V13.92C51.0479 14.0267 50.7079 14.1067 50.3345 14.16C49.9745 14.2267 49.5812 14.26 49.1545 14.26C48.5545 14.26 48.0479 14.1867 47.6345 14.04C47.2345 13.8933 46.9079 13.6933 46.6545 13.44C46.4145 13.1733 46.2345 12.8533 46.1145 12.48C46.0079 12.1067 45.9545 11.6933 45.9545 11.24V5.44H44.5145V3.56H45.9545V0.799999H48.5145V3.56ZM57.3272 3.2C58.1405 3.2 58.8805 3.34667 59.5472 3.64C60.2139 3.92 60.7739 4.30667 61.2272 4.8C61.6939 5.29333 62.0539 5.88 62.3072 6.56C62.5605 7.24 62.6872 7.96667 62.6872 8.74C62.6872 9.55333 62.5605 10.3 62.3072 10.98C62.0672 11.66 61.7139 12.2467 61.2472 12.74C60.7939 13.22 60.2339 13.5933 59.5672 13.86C58.9139 14.1267 58.1672 14.26 57.3272 14.26C56.4872 14.26 55.7339 14.12 55.0672 13.84C54.4005 13.56 53.8339 13.18 53.3672 12.7C52.9139 12.2067 52.5672 11.6267 52.3272 10.96C52.0872 10.28 51.9672 9.54 51.9672 8.74C51.9672 7.94 52.0872 7.2 52.3272 6.52C52.5805 5.84 52.9339 5.25333 53.3872 4.76C53.8539 4.26667 54.4205 3.88667 55.0872 3.62C55.7539 3.34 56.5005 3.2 57.3272 3.2ZM57.3272 5.28C56.5139 5.28 55.8605 5.56667 55.3672 6.14C54.8872 6.71333 54.6472 7.56667 54.6472 8.7C54.6472 9.83333 54.8805 10.7 55.3472 11.3C55.8272 11.8867 56.4872 12.18 57.3272 12.18C58.1672 12.18 58.8205 11.8867 59.2872 11.3C59.7672 10.7 60.0072 9.83333 60.0072 8.7C60.0072 7.56667 59.7605 6.71333 59.2672 6.14C58.7872 5.56667 58.1405 5.28 57.3272 5.28ZM73.4417 14H70.9417V12.78C70.5551 13.2733 70.0951 13.6467 69.5617 13.9C69.0284 14.14 68.4617 14.26 67.8617 14.26C66.8084 14.26 65.9551 13.96 65.3017 13.36C64.6484 12.76 64.3217 11.84 64.3217 10.6V3.46H66.8817V10.02C66.8817 10.7533 67.0151 11.28 67.2817 11.6C67.5484 11.9067 67.9817 12.06 68.5817 12.06C69.2617 12.06 69.8151 11.8333 70.2417 11.38C70.6684 10.9133 70.8817 10.28 70.8817 9.48V3.46H73.4417V14ZM80.4689 3.2C81.6289 3.2 82.6022 3.45333 83.3889 3.96C84.1756 4.46667 84.7622 5.15333 85.1489 6.02L82.9289 6.92C82.7156 6.4 82.4156 6 82.0289 5.72C81.6422 5.42667 81.1689 5.28 80.6089 5.28C79.7956 5.28 79.1422 5.56667 78.6489 6.14C78.1556 6.71333 77.9089 7.56667 77.9089 8.7C77.9089 9.83333 78.1489 10.7 78.6289 11.3C79.1089 11.8867 79.7689 12.18 80.6089 12.18C80.9689 12.18 81.2822 12.1333 81.5489 12.04C81.8156 11.9333 82.0422 11.7933 82.2289 11.62C82.4289 11.4333 82.5956 11.2267 82.7289 11C82.8622 10.7733 82.9822 10.5267 83.0889 10.26L85.3089 11.18C84.9089 12.0867 84.3089 12.8267 83.5089 13.4C82.7089 13.9733 81.7022 14.26 80.4889 14.26C79.6622 14.26 78.9222 14.12 78.2689 13.84C77.6156 13.56 77.0622 13.18 76.6089 12.7C76.1556 12.2067 75.8089 11.6267 75.5689 10.96C75.3422 10.28 75.2289 9.54 75.2289 8.74C75.2289 7.94 75.3489 7.2 75.5889 6.52C75.8422 5.84 76.1956 5.25333 76.6489 4.76C77.1022 4.26667 77.6489 3.88667 78.2889 3.62C78.9422 3.34 79.6689 3.2 80.4689 3.2ZM89.3059 4.74C89.7059 4.22 90.1659 3.83333 90.6859 3.58C91.2059 3.32667 91.7793 3.2 92.4059 3.2C93.5659 3.2 94.4526 3.55333 95.0659 4.26C95.6793 4.96667 95.9859 5.95333 95.9859 7.22V14H93.4259V7.88C93.4259 7.12 93.3059 6.51333 93.0659 6.06C92.8259 5.59333 92.3526 5.36 91.6459 5.36C91.2993 5.36 90.9859 5.42667 90.7059 5.56C90.4259 5.69333 90.1793 5.88667 89.9659 6.14C89.7526 6.38 89.5859 6.67333 89.4659 7.02C89.3593 7.35333 89.3059 7.72667 89.3059 8.14V14H86.7459V-9.53674e-07H89.3059V4.74Z" fill="#898989"/>
</svg>

