<svg width="56" height="56" viewBox="0 0 56 56" fill="none" xmlns="http://www.w3.org/2000/svg">
<circle cx="28" cy="28" r="27.5" fill="#E7ECF0" stroke="#656565"/>
<path d="M20.94 22.35C20.55 21.96 20.55 21.32 20.94 20.93C21.0325 20.8373 21.1424 20.7637 21.2634 20.7136C21.3843 20.6634 21.514 20.6376 21.645 20.6376C21.776 20.6376 21.9057 20.6634 22.0266 20.7136C22.1476 20.7637 22.2575 20.8373 22.35 20.93L29.07 26.31L29.42 26.59C30.2 27.37 30.2 28.64 29.42 29.42C28.64 30.2 27.37 30.2 26.59 29.42L26.31 29.07L20.94 22.35ZM28 36C30.1217 36 32.1566 35.1571 33.6569 33.6569C35.1571 32.1566 36 30.1217 36 28C36 25.79 35.1 23.79 33.66 22.34L35.07 20.93C36 21.8574 36.7376 22.9593 37.2405 24.1726C37.7433 25.3859 38.0014 26.6866 38 28C38 30.6522 36.9464 33.1957 35.0711 35.0711C33.1957 36.9464 30.6522 38 28 38C26.6868 38 25.3864 37.7413 24.1732 37.2388C22.9599 36.7362 21.8575 35.9997 20.9289 35.0711C19.0536 33.1957 18 30.6522 18 28H20C20 30.1217 20.8429 32.1566 22.3431 33.6569C23.8434 35.1571 25.8783 36 28 36ZM28 17C28.5304 17 29.0391 17.2107 29.4142 17.5858C29.7893 17.9609 30 18.4696 30 19C30 19.5304 29.7893 20.0391 29.4142 20.4142C29.0391 20.7893 28.5304 21 28 21C27.4696 21 26.9609 20.7893 26.5858 20.4142C26.2107 20.0391 26 19.5304 26 19C26 18.4696 26.2107 17.9609 26.5858 17.5858C26.9609 17.2107 27.4696 17 28 17Z" fill="black"/>
</svg>
