<svg width="44" height="43" viewBox="0 0 44 43" fill="none" xmlns="http://www.w3.org/2000/svg">
<path d="M37.862 0H6.64375C3.39281 0 0.741333 2.65147 0.741333 5.90241V37.0976C0.741333 40.3716 3.39281 43 6.64375 43H37.8389C41.1129 43 43.7413 40.3485 43.7413 37.0976V5.90241C43.7413 2.62842 41.0899 0 37.8389 0H37.862ZM5.21426 9.75281V6.47882C5.21426 5.51046 5.99817 4.72654 6.96653 4.72654H10.2405C11.2089 4.72654 11.9928 5.51046 11.9928 6.47882V9.75281C11.9928 10.7212 11.2089 11.5051 10.2405 11.5051H6.96653C5.99817 11.5051 5.21426 10.7212 5.21426 9.75281ZM22.3451 35.8756C15.2899 35.8756 9.87163 30.6649 9.87163 23.5635C9.87163 17.1078 14.3907 12.3351 20.3392 11.4359C19.7397 12.6349 19.3939 13.9721 19.3939 15.4016C19.3939 16.4391 19.6014 17.4075 19.9242 18.3298C18.0797 19.2981 16.8116 21.281 16.8116 23.5635C16.8116 26.7453 19.2325 29.3968 22.3681 29.3968C25.3193 29.3968 27.4636 27.1142 27.8325 24.3936C28.04 24.3936 28.2475 24.4627 28.4781 24.4627C30.899 24.4627 33.0663 23.4944 34.7033 21.9496C34.7724 22.4568 34.8416 22.941 34.8416 23.4713C34.8416 30.734 29.3311 35.8756 22.3681 35.8756H22.3451ZM28.455 22.2493C24.6738 22.2493 21.6073 19.1828 21.6073 15.4016C21.6073 11.6204 24.6738 8.55389 28.455 8.55389C32.2362 8.55389 35.3027 11.6204 35.3027 15.4016C35.3027 19.1828 32.2362 22.2493 28.455 22.2493Z" fill="#E1E1E1"/>
</svg>
