<svg width="26" height="33" viewBox="0 0 26 33" fill="none" xmlns="http://www.w3.org/2000/svg">
<path d="M13.2413 16.5C14.1007 16.5 14.8366 16.1937 15.4491 15.5812C16.0606 14.9698 16.3663 14.2344 16.3663 13.375C16.3663 12.5156 16.0606 11.7797 15.4491 11.1672C14.8366 10.5557 14.1007 10.25 13.2413 10.25C12.382 10.25 11.6465 10.5557 11.0351 11.1672C10.4226 11.7797 10.1163 12.5156 10.1163 13.375C10.1163 14.2344 10.4226 14.9698 11.0351 15.5812C11.6465 16.1937 12.382 16.5 13.2413 16.5ZM13.2413 32.125C9.04862 28.5573 5.91737 25.2432 3.84758 22.1828C1.77675 19.1234 0.741333 16.2917 0.741333 13.6875C0.741333 9.78125 1.9981 6.66927 4.51165 4.35156C7.02415 2.03385 9.93404 0.875 13.2413 0.875C16.5486 0.875 19.4585 2.03385 21.971 4.35156C24.4846 6.66927 25.7413 9.78125 25.7413 13.6875C25.7413 16.2917 24.7064 19.1234 22.6366 22.1828C20.5658 25.2432 17.434 28.5573 13.2413 32.125Z" fill="#E1E1E1"/>
</svg>
