<svg width="38" height="33" viewBox="0 0 38 33" fill="none" xmlns="http://www.w3.org/2000/svg">
<path d="M18.645 7.60521L18.7168 28.1582C18.7182 28.5449 18.9979 28.8605 19.3439 28.8619L28.3954 28.9159C28.8203 28.9196 29.1649 28.5343 29.1633 28.0568L29.1307 18.7534C29.1291 18.276 29.4737 17.8881 29.9009 17.8866L36.5767 17.8632C36.925 17.862 37.2071 17.5444 37.2058 17.1552L37.1722 7.54042C37.1708 7.15116 36.8864 6.83555 36.5381 6.83677L19.2741 6.89714C18.9258 6.89836 18.6436 7.21595 18.645 7.60521Z" fill="#E1E1E1"/>
<path d="M16.8499 6.90562L2.55569 6.95562C2.20687 6.95684 1.92521 7.27385 1.92657 7.66368L1.99878 28.3101C2.00014 28.6999 2.28402 29.015 2.63283 29.0137L16.927 28.9638C17.2758 28.9625 17.5575 28.6455 17.5562 28.2557L17.4839 7.60928C17.4826 7.21944 17.1987 6.9044 16.8499 6.90562Z" fill="#E1E1E1"/>
<path d="M18.0908 29.7383L1.47457 29.7964C1.12576 29.7976 0.844092 30.1146 0.845456 30.5044L0.849594 31.6878C0.850958 32.0776 1.13483 32.3927 1.48365 32.3914L18.0998 32.3333C18.4487 32.3321 18.7303 32.0151 18.729 31.6253L18.7248 30.4419C18.7235 30.0521 18.4396 29.737 18.0908 29.7383Z" fill="#E1E1E1"/>
<path d="M17.766 3.26926L1.8464 3.32494C1.49758 3.32616 1.21592 3.64317 1.21728 4.03301L1.22142 5.21636C1.22278 5.6062 1.50666 5.92123 1.85547 5.92001L17.7751 5.86434C18.1239 5.86312 18.4056 5.5461 18.4042 5.15627L18.4001 3.97291C18.3987 3.58308 18.1148 3.26804 17.766 3.26926Z" fill="#E1E1E1"/>
<path d="M7.41009 0.710377L12.1818 0.693688C12.5301 0.69247 12.8145 1.00808 12.8158 1.39734L12.8224 3.28655L6.78758 3.30766L6.78097 1.41845C6.77961 1.02918 7.06179 0.711595 7.41009 0.710377Z" fill="#E1E1E1"/>
</svg>
