<svg width="31" height="27" viewBox="0 0 31 27" fill="none" xmlns="http://www.w3.org/2000/svg">
<path fill-rule="evenodd" clip-rule="evenodd" d="M23.5086 0C23.9744 0 24.4337 0.108435 24.8503 0.316718C25.2668 0.525001 25.6292 0.827411 25.9086 1.2L29.9406 6.576C30.143 6.84115 30.2508 7.16646 30.2466 7.5H30.2586V9C30.2601 10.4618 29.7266 11.8736 28.7586 12.969V24C28.7586 24.7956 28.4426 25.5587 27.88 26.1213C27.3173 26.6839 26.5543 27 25.7586 27H4.75864C3.96299 27 3.19993 26.6839 2.63732 26.1213C2.07471 25.5587 1.75864 24.7956 1.75864 24V12.969C0.790117 11.8739 0.256472 10.4619 0.258643 9V7.5H0.270643C0.266522 7.16646 0.374254 6.84115 0.576643 6.576L4.60864 1.2C4.88808 0.827411 5.25043 0.525001 5.667 0.316718C6.08357 0.108435 6.54291 0 7.00864 0H23.5086ZM27.2586 9H21.2586C21.2552 9.77847 21.5544 10.5278 22.0932 11.0897C22.632 11.6516 23.3681 11.9821 24.146 12.0113C24.924 12.0405 25.6828 11.7662 26.2622 11.2463C26.8416 10.7263 27.1962 10.0015 27.2511 9.225L27.2586 9ZM18.2586 9H12.2586C12.2552 9.77847 12.5544 10.5278 13.0932 11.0897C13.632 11.6516 14.3681 11.9821 15.146 12.0113C15.924 12.0405 16.6828 11.7662 17.2622 11.2463C17.8416 10.7263 18.1962 10.0015 18.2511 9.225L18.2586 9ZM9.25864 9H3.25864C3.25516 9.77847 3.55442 10.5278 4.09321 11.0897C4.632 11.6516 5.36812 11.9821 6.14605 12.0113C6.92398 12.0405 7.68281 11.7662 8.26222 11.2463C8.84162 10.7263 9.19624 10.0015 9.25114 9.225L9.25864 9Z" fill="#E1E1E1"/>
</svg>
