<svg width="300" height="300" viewBox="0 0 300 300" fill="none" xmlns="http://www.w3.org/2000/svg">
<path d="M300 150C300 232.843 232.843 300 150 300C67.1573 300 0 232.843 0 150C0 67.1573 67.1573 0 150 0C232.843 0 300 67.1573 300 150Z" fill="#E2E7EA"/>
<path d="M288 150C288 226.215 226.215 288 150 288C73.7847 288 12 226.215 12 150C12 73.7847 73.7847 12 150 12C226.215 12 288 73.7847 288 150Z" fill="white"/>
<path d="M286 150C286 225.111 225.111 286 150 286C74.8893 286 14 225.111 14 150C14 74.8893 74.8893 14 150 14C225.111 14 286 74.8893 286 150Z" fill="url(#paint0_linear_56_1011)"/>
<path d="M274 150C274 218.483 218.483 274 150 274C81.5167 274 26 218.483 26 150C26 81.5167 81.5167 26 150 26C218.483 26 274 81.5167 274 150Z" fill="url(#paint1_linear_56_1011)"/>
<path d="M241 150C241 200.258 200.258 241 150 241C99.7421 241 59 200.258 59 150C59 99.7421 99.7421 59 150 59C200.258 59 241 99.7421 241 150Z" fill="url(#paint2_linear_56_1011)"/>
<path d="M69.01 121.551C69.1696 121.118 69.3605 120.769 69.5826 120.505C69.807 120.234 70.0528 120.037 70.3198 119.914C70.5831 119.782 70.8596 119.718 71.1495 119.721C71.4355 119.715 71.7187 119.764 71.9993 119.868C72.3164 119.985 72.587 120.143 72.8111 120.343C73.0373 120.538 73.2079 120.77 73.3228 121.041C73.4316 121.31 73.4817 121.616 73.473 121.959C73.4582 122.3 73.3755 122.675 73.2249 123.083L72.7934 124.254L74.989 125.063L74.5406 126.28L68.1369 123.92L69.01 121.551ZM72.2422 122.648C72.2984 122.496 72.3329 122.346 72.3458 122.198C72.3586 122.05 72.3404 121.912 72.2909 121.783C72.2438 121.648 72.1582 121.523 72.0343 121.408C71.9104 121.293 71.7417 121.196 71.5283 121.118C71.2112 121.001 70.9232 121.002 70.6645 121.121C70.3997 121.239 70.2032 121.471 70.0751 121.819L69.6099 123.081L71.7871 123.883L72.2422 122.648Z" fill="#E4E7EB"/>
<path d="M72.8166 112.392C72.9868 112.056 73.215 111.742 73.5013 111.45C73.7847 111.149 74.123 110.919 74.5161 110.761C74.9093 110.603 75.3573 110.538 75.86 110.567C76.3569 110.593 76.907 110.758 77.5101 111.063C78.0727 111.348 78.5144 111.677 78.8352 112.051C79.1503 112.421 79.365 112.811 79.4793 113.218C79.5965 113.62 79.6265 114.028 79.5693 114.444C79.5121 114.859 79.3895 115.252 79.2017 115.624C79.0315 115.96 78.8033 116.274 78.517 116.566C78.2307 116.859 77.891 117.084 77.4978 117.242C77.1047 117.4 76.6596 117.466 76.1627 117.44C75.6599 117.412 75.1099 117.246 74.5126 116.944C73.9442 116.656 73.5025 116.327 73.1875 115.956C72.8666 115.583 72.6475 115.195 72.5303 114.793C72.416 114.386 72.3889 113.979 72.449 113.572C72.5062 113.157 72.6287 112.764 72.8166 112.392ZM73.7996 112.89C73.6675 113.151 73.595 113.416 73.5821 113.687C73.5721 113.951 73.6246 114.207 73.7397 114.455C73.849 114.7 74.0179 114.934 74.2465 115.159C74.4779 115.378 74.7648 115.575 75.1069 115.748C75.7913 116.094 76.4083 116.22 76.9582 116.127C77.508 116.034 77.9282 115.7 78.2187 115.126C78.3478 114.871 78.4174 114.611 78.4274 114.347C78.4374 114.082 78.3877 113.828 78.2785 113.583C78.1721 113.332 78.0047 113.095 77.7761 112.87C77.5476 112.645 77.2593 112.444 76.9113 112.268C76.575 112.098 76.2514 111.982 75.9407 111.919C75.6242 111.854 75.3335 111.845 75.0688 111.893C74.7983 111.938 74.555 112.045 74.3391 112.212C74.1232 112.38 73.9434 112.606 73.7996 112.89Z" fill="#E4E7EB"/>
<path d="M82.0264 108.05L83.6611 105.542L84.6085 106.16L82.2655 109.754L76.5487 106.026L77.2569 104.94L82.0264 108.05Z" fill="#E4E7EB"/>
<path d="M88.0432 99.8074L86.3307 101.921L87.0021 102.904L86.1611 103.942L82.2707 97.9028L83.308 96.6227L90.0221 99.1773L89.1443 100.26L88.0432 99.8074ZM85.7029 101.023L87.0287 99.3868L83.5632 97.9338L85.7029 101.023Z" fill="#E4E7EB"/>
<path d="M89.175 90.193C89.4983 89.8729 89.8143 89.6378 90.123 89.4876C90.4363 89.3329 90.7331 89.2494 91.0135 89.237C91.2986 89.22 91.5649 89.2673 91.8125 89.3788C92.0556 89.4857 92.2754 89.6385 92.4721 89.8371C92.7968 90.165 92.988 90.5291 93.0458 90.9292C93.1036 91.3201 93.0188 91.7425 92.7913 92.1964L96.076 92.9642L95.0021 94.0274L92.014 93.2405L91.245 94.0019L93.1177 95.8932L92.1963 96.8056L87.3945 91.956L89.175 90.193ZM89.0773 91.8126L90.5179 93.2675L91.4254 92.3689C91.5409 92.2546 91.638 92.1356 91.7168 92.0119C91.7955 91.8882 91.8444 91.762 91.8634 91.6334C91.8825 91.4956 91.8671 91.36 91.8172 91.2264C91.7673 91.0837 91.6692 90.9385 91.5229 90.7907C91.2897 90.5551 91.0443 90.4505 90.7868 90.4768C90.5247 90.4985 90.2643 90.6373 90.0057 90.8934L89.0773 91.8126Z" fill="#E4E7EB"/>
<path d="M96.5156 83.4947C96.8123 83.2621 97.1521 83.0741 97.5352 82.9306C97.9194 82.778 98.323 82.7134 98.7461 82.7368C99.1692 82.7601 99.6024 82.8912 100.046 83.13C100.485 83.3637 100.913 83.7465 101.33 84.2784C101.719 84.7745 101.98 85.2597 102.113 85.7341C102.241 86.2033 102.271 86.6467 102.202 87.0642C102.138 87.4778 101.992 87.8606 101.764 88.2127C101.537 88.5648 101.259 88.8691 100.932 89.1258C100.635 89.3585 100.295 89.5465 99.9121 89.69C99.529 89.8335 99.1259 89.8935 98.7028 89.8701C98.2797 89.8467 97.8485 89.7182 97.4092 89.4845C96.9659 89.2457 96.5377 88.8629 96.1246 88.3362C95.7315 87.8349 95.4707 87.3497 95.3423 86.8805C95.2099 86.4062 95.1756 85.9622 95.2395 85.5487C95.3085 85.1311 95.4563 84.7508 95.683 84.4079C95.9108 84.0558 96.1883 83.7514 96.5156 83.4947ZM97.1955 84.3617C96.9653 84.5421 96.7872 84.7521 96.661 84.9914C96.5399 85.2268 96.4791 85.481 96.4785 85.7541C96.4739 86.022 96.5274 86.3063 96.6392 86.6068C96.7561 86.9033 96.9329 87.2025 97.1696 87.5042C97.6429 88.1077 98.1483 88.4837 98.6859 88.632C99.2235 88.7804 99.7454 88.656 100.252 88.2589C100.477 88.0824 100.65 87.8765 100.771 87.6412C100.892 87.4058 100.955 87.1542 100.959 86.8862C100.969 86.6143 100.918 86.328 100.806 86.0275C100.695 85.7269 100.518 85.4232 100.278 85.1163C100.045 84.8197 99.8012 84.5773 99.5462 84.389C99.2872 84.1957 99.0276 84.0647 98.7674 83.9962C98.5032 83.9226 98.2378 83.916 97.9712 83.9763C97.7047 84.0367 97.4461 84.1651 97.1955 84.3617Z" fill="#E4E7EB"/>
<path d="M107.31 84.4145L106.219 85.1153L102.531 79.3729L103.622 78.6722L107.31 84.4145Z" fill="#E4E7EB"/>
<path d="M109.449 75.2859C109.87 75.0669 110.296 74.9147 110.728 74.8292C111.166 74.7407 111.589 74.7441 111.997 74.8392C112.409 74.9256 112.795 75.1127 113.158 75.4004C113.517 75.6824 113.832 76.0829 114.102 76.6018C114.414 77.2015 114.587 77.7452 114.621 78.233C114.655 78.7209 114.596 79.1579 114.446 79.5441C114.298 79.9215 114.078 80.2521 113.786 80.5359C113.497 80.8109 113.185 81.0354 112.85 81.2095L110.688 82.3346L107.538 76.2805L109.449 75.2859ZM109.188 76.6638L111.321 80.7632L112.333 80.2367C112.529 80.1347 112.713 80.0023 112.885 79.8397C113.057 79.677 113.183 79.4758 113.263 79.2361C113.344 78.9964 113.361 78.7127 113.315 78.385C113.275 78.0542 113.141 77.6697 112.913 77.2315C112.763 76.9432 112.59 76.696 112.395 76.4899C112.2 76.2837 111.979 76.1346 111.733 76.0427C111.493 75.9477 111.227 75.9142 110.934 75.9422C110.646 75.9672 110.333 76.0682 109.992 76.2452L109.188 76.6638Z" fill="#E4E7EB"/>
<path d="M124.098 69.0133C124.371 68.9286 124.654 68.875 124.946 68.8524C125.245 68.8278 125.539 68.8525 125.827 68.9265C126.119 68.9922 126.403 69.1154 126.676 69.2959C126.954 69.4683 127.213 69.7113 127.453 70.0247L126.347 70.7353C126.089 70.4071 125.805 70.1852 125.497 70.0697C125.188 69.9481 124.831 69.9498 124.427 70.0749C123.862 70.25 123.482 70.5925 123.286 71.1024C123.097 71.6103 123.116 72.2336 123.345 72.9724C123.572 73.7049 123.901 74.2392 124.332 74.5752C124.767 74.903 125.289 74.9726 125.897 74.784C126.357 74.6416 126.685 74.4172 126.883 74.111C127.087 73.8028 127.196 73.4186 127.21 72.9584L128.501 72.9764C128.481 73.3501 128.41 73.6919 128.288 74.0019C128.171 74.3037 128.011 74.5778 127.809 74.8243C127.604 75.0647 127.362 75.2723 127.083 75.4474C126.81 75.6205 126.512 75.757 126.189 75.8571C125.835 75.9668 125.457 76.0195 125.054 76.0151C124.658 76.0088 124.269 75.9183 123.888 75.7438C123.512 75.5611 123.163 75.2813 122.842 74.9045C122.525 74.5195 122.269 74.0104 122.072 73.3772C121.884 72.7688 121.81 72.2235 121.851 71.7412C121.89 71.2528 122.01 70.8277 122.211 70.466C122.418 70.1024 122.686 69.8017 123.013 69.564C123.345 69.3181 123.707 69.1346 124.098 69.0133Z" fill="#E4E7EB"/>
<path d="M136.053 72.1313L133.38 72.6323L133.254 73.8164L131.941 74.0624L132.889 66.9415L134.508 66.638L137.969 72.9329L136.599 73.1897L136.053 72.1313ZM133.483 71.5417L135.553 71.1539L133.853 67.8022L133.483 71.5417Z" fill="#E4E7EB"/>
<path d="M148.168 72.0603L146.922 72.136L146.591 66.6864L145.336 72.2325L143.974 72.3153L142.022 67.0423L142.349 72.4142L141.142 72.4875L140.728 65.6755L142.645 65.5589L144.589 70.8714L145.788 65.3677L147.754 65.2482L148.168 72.0603Z" fill="#E4E7EB"/>
<path d="M156.987 66.6677L153.853 66.4772L153.749 68.1899L156.678 68.3681L156.613 69.4385L153.684 69.2604L153.572 71.1094L156.793 71.3053L156.726 72.3952L152.211 72.1206L152.625 65.3086L157.053 65.5778L156.987 66.6677Z" fill="#E4E7EB"/>
<path d="M163.959 66.4807C164.407 66.5564 164.783 66.6757 165.085 66.8387C165.393 67.0027 165.634 67.195 165.808 67.4154C165.988 67.637 166.105 67.8808 166.159 68.147C166.214 68.4067 166.219 68.6744 166.172 68.95C166.096 69.4051 165.912 69.7728 165.62 70.0533C165.337 70.3285 164.944 70.5062 164.443 70.5864L165.737 73.7015L164.247 73.4503L163.142 70.5648L162.074 70.3849L161.632 73.0094L160.353 72.7939L161.488 66.0642L163.959 66.4807ZM162.587 67.3469L162.246 69.3658L163.506 69.5781C163.666 69.6051 163.819 69.6145 163.966 69.6062C164.112 69.598 164.243 69.564 164.358 69.5044C164.481 69.4394 164.583 69.3477 164.662 69.2293C164.749 69.1055 164.809 68.941 164.844 68.7359C164.899 68.4091 164.841 68.1488 164.669 67.955C164.498 67.7549 164.234 67.6246 163.875 67.5641L162.587 67.3469Z" fill="#E4E7EB"/>
<path d="M172.728 74.3389L170.111 73.5967L169.471 74.601L168.186 74.2366L172.205 68.2827L173.791 68.7322L174.086 75.9098L172.745 75.5294L172.728 74.3389ZM170.689 72.6662L172.715 73.2407L172.686 69.483L170.689 72.6662Z" fill="#E4E7EB"/>
<path d="M185.64 76.9882L186.934 77.603L186.491 78.5366L185.196 77.9218L184.548 79.2868L183.456 78.7682L184.104 77.4032L182.81 76.7884L183.253 75.8548L184.548 76.4696L185.196 75.1046L186.288 75.6232L185.64 76.9882Z" fill="#E4E7EB"/>
<path d="M198.969 80.8097C199.347 81.0742 199.636 81.3475 199.835 81.6297C200.04 81.9156 200.168 82.2033 200.219 82.493C200.279 82.781 200.271 83.0648 200.195 83.3444C200.127 83.6224 200.008 83.8839 199.836 84.1289C199.642 84.4058 199.42 84.6271 199.17 84.7928C198.924 84.9622 198.656 85.068 198.365 85.1102C198.077 85.147 197.768 85.1176 197.439 85.0218C197.113 84.9208 196.771 84.7454 196.415 84.4958L195.392 83.7805L194.051 85.6979L192.988 84.9547L196.9 79.3624L198.969 80.8097ZM197.085 83.6562C197.218 83.7493 197.355 83.8209 197.494 83.8709C197.634 83.9209 197.772 83.9384 197.91 83.9234C198.052 83.9122 198.195 83.8613 198.338 83.7708C198.48 83.6802 198.617 83.5417 198.747 83.3553C198.941 83.0783 199.013 82.7995 198.963 82.519C198.918 82.233 198.743 81.9839 198.439 81.7715L197.337 81.0004L196.007 82.9017L197.085 83.6562Z" fill="#E4E7EB"/>
<path d="M206.348 86.5938C206.69 86.8937 206.947 87.1923 207.119 87.4896C207.295 87.7912 207.4 88.0814 207.432 88.3603C207.469 88.6434 207.44 88.9124 207.347 89.1673C207.257 89.4173 207.12 89.6474 206.936 89.8575C206.632 90.2046 206.282 90.421 205.887 90.5069C205.501 90.5922 205.074 90.5374 204.605 90.3425L204.071 93.6732L202.935 92.677L203.509 89.6408L202.695 88.9275L200.941 90.929L199.965 90.0743L204.464 84.9422L206.348 86.5938ZM204.726 86.6107L203.376 88.1503L204.337 88.9922C204.459 89.0993 204.584 89.1878 204.713 89.2576C204.842 89.3274 204.972 89.3673 205.101 89.3772C205.24 89.3865 205.374 89.3615 205.504 89.3023C205.643 89.2425 205.781 89.1344 205.918 88.978C206.136 88.7287 206.223 88.4766 206.179 88.2216C206.139 87.9617 205.982 87.7118 205.708 87.4719L204.726 86.6107Z" fill="#E4E7EB"/>
<path d="M207.229 96.9033L206.332 95.9661L211.265 91.2495L212.161 92.1867L207.229 96.9033Z" fill="#E4E7EB"/>
<path d="M213.314 104.095L212.403 102.951L214.379 97.7915L210.656 100.753L209.915 99.8223L215.256 95.574L216.148 96.6956L214.086 101.949L217.909 98.9084L218.655 99.8469L213.314 104.095Z" fill="#E4E7EB"/>
<path d="M222.766 108.018L221.726 106.369L216.885 109.421L216.194 108.325L221.035 105.272L219.994 103.623L220.926 103.035L223.698 107.431L222.766 108.018Z" fill="#E4E7EB"/>
<path d="M226.736 115.557L225.344 112.743L223.806 113.504L225.107 116.134L224.146 116.61L222.845 113.979L221.184 114.801L222.615 117.693L221.636 118.177L219.631 114.123L225.748 111.097L227.715 115.073L226.736 115.557Z" fill="#E4E7EB"/>
<path d="M230.363 121.514C230.52 121.941 230.603 122.326 230.612 122.669C230.623 123.018 230.576 123.323 230.471 123.584C230.368 123.85 230.215 124.073 230.011 124.252C229.812 124.429 229.582 124.566 229.32 124.662C228.887 124.822 228.477 124.845 228.088 124.732C227.709 124.622 227.359 124.37 227.041 123.975L224.981 126.646L224.458 125.228L226.413 122.835L226.039 121.819L223.541 122.74L223.093 121.523L229.496 119.163L230.363 121.514ZM228.929 120.754L227.008 121.462L227.45 122.66C227.506 122.813 227.574 122.951 227.654 123.073C227.734 123.196 227.829 123.293 227.938 123.364C228.055 123.438 228.185 123.48 228.327 123.49C228.478 123.504 228.651 123.475 228.846 123.403C229.157 123.289 229.354 123.109 229.436 122.863C229.525 122.616 229.507 122.321 229.381 121.98L228.929 120.754Z" fill="#E4E7EB"/>
<path d="M74.8024 173.015C74.8898 173.321 74.9297 173.6 74.9221 173.853C74.9198 174.105 74.8746 174.326 74.7864 174.517C74.6997 174.713 74.578 174.876 74.4212 175.006C74.2645 175.137 74.0806 175.232 73.8695 175.292C73.5688 175.378 73.2885 175.356 73.0285 175.224C72.77 175.099 72.5636 174.895 72.4091 174.614C72.4302 174.768 72.4268 174.926 72.3989 175.088C72.3763 175.248 72.3254 175.4 72.2462 175.542C72.1671 175.684 72.0608 175.812 71.9274 175.924C71.7993 176.035 71.6402 176.117 71.4503 176.172C71.1918 176.245 70.942 176.26 70.7009 176.214C70.4612 176.174 70.2412 176.083 70.0407 175.941C69.8403 175.798 69.6643 175.612 69.5129 175.381C69.3614 175.151 69.2435 174.887 69.1591 174.592C68.9994 174.033 69.0014 173.53 69.165 173.084C69.3353 172.642 69.6413 172.295 70.083 172.043L70.5848 172.961C70.3429 173.093 70.1586 173.277 70.032 173.513C69.9106 173.747 69.8951 174.022 69.9855 174.339C70.0684 174.629 70.2108 174.848 70.4127 174.996C70.6162 175.149 70.8683 175.182 71.169 175.096C71.4433 175.018 71.6268 174.872 71.7195 174.657C71.8175 174.441 71.8266 174.193 71.7468 173.913L71.5773 173.32L72.3211 173.107L72.4635 173.606C72.4921 173.706 72.532 173.806 72.5833 173.905C72.6398 174.003 72.7091 174.086 72.7912 174.154C72.8734 174.222 72.9695 174.268 73.0795 174.294C73.191 174.325 73.3206 174.319 73.4684 174.277C73.6055 174.238 73.714 174.178 73.7939 174.099C73.8753 174.024 73.9338 173.939 73.9692 173.843C74.0099 173.746 74.0291 173.643 74.0269 173.536C74.0246 173.428 74.0084 173.321 73.9783 173.216C73.9 172.941 73.7655 172.74 73.5748 172.612C73.3909 172.488 73.1713 172.428 72.9158 172.432L72.8017 171.404C73.0037 171.392 73.2049 171.417 73.4054 171.479C73.6111 171.54 73.804 171.637 73.9841 171.768C74.1657 171.904 74.3259 172.075 74.4645 172.281C74.6099 172.49 74.7225 172.735 74.8024 173.015Z" fill="#EBECF0"/>
<path d="M72.2911 179.689C72.3229 179.776 72.3348 179.865 72.3267 179.956C72.3205 180.051 72.2968 180.139 72.2555 180.218C72.2212 180.3 72.1693 180.375 72.0999 180.441C72.0356 180.505 71.957 180.554 71.8642 180.587C71.6836 180.653 71.5055 180.645 71.3298 180.562C71.1593 180.478 71.0413 180.346 70.9759 180.165C70.9422 180.073 70.9285 179.978 70.9347 179.883C70.9427 179.792 70.9639 179.706 70.9982 179.623C71.0395 179.544 71.0923 179.473 71.1566 179.408C71.226 179.342 71.3046 179.293 71.3923 179.262C71.4851 179.228 71.5768 179.215 71.6672 179.223C71.7629 179.229 71.8493 179.251 71.9266 179.287C72.011 179.326 72.0826 179.379 72.1416 179.445C72.2076 179.515 72.2575 179.596 72.2911 179.689Z" fill="#EBECF0"/>
<path d="M75.7504 186.19L76.0926 186.956L75.296 187.312L74.9538 186.545L73.9093 187.012L73.4832 186.057L74.5278 185.591L73.3737 183.006L74.1928 182.64L78.4992 183.485L79.0494 184.717L75.7504 186.19ZM74.6198 183.657L75.3243 185.236L77.6239 184.209L74.6198 183.657Z" fill="#EBECF0"/>
<path d="M78.576 195.712L78.0509 194.798L82.0463 192.501L77.3823 193.635L76.8081 192.637L80.0613 189.181L76.123 191.445L75.6144 190.561L80.6085 187.689L81.4166 189.095L78.1308 192.56L82.7415 191.399L83.5701 192.84L78.576 195.712Z" fill="#EBECF0"/>
<path d="M84.0573 203.517L83.4315 202.67L87.1386 199.932L82.6345 201.591L81.9501 200.664L84.7878 196.86L81.1336 199.559L80.5273 198.738L85.1612 195.315L86.1244 196.62L83.2553 200.437L87.7036 198.758L88.6912 200.095L84.0573 203.517Z" fill="#EBECF0"/>
<path d="M95.1547 208.507L93.3555 206.698L92.2295 207.818L93.8952 209.493L93.2534 210.131L91.5877 208.457L89.9249 210.111L89.153 209.335L93.237 205.272L95.8082 207.856L95.1547 208.507Z" fill="#EBECF0"/>
<path d="M99.1312 210.859C99.3566 211.051 99.5306 211.257 99.6532 211.477C99.7794 211.692 99.8552 211.912 99.8808 212.136C99.9064 212.359 99.8829 212.577 99.8103 212.789C99.7418 213.005 99.6275 213.207 99.4673 213.395C99.2787 213.616 99.0533 213.791 98.7912 213.921C98.5327 214.047 98.2363 214.137 97.902 214.19C97.5754 214.244 97.2092 214.263 96.8033 214.249C96.3974 214.234 95.9528 214.198 95.4694 214.139L97.4734 215.847L96.9128 216.505L93.8316 213.878L94.3762 213.239C95.0107 213.29 95.5583 213.324 96.0189 213.342C96.4873 213.359 96.8893 213.349 97.2248 213.31C97.5603 213.272 97.8389 213.203 98.0606 213.104C98.2823 213.004 98.4715 212.863 98.6281 212.679C98.8061 212.47 98.8871 212.265 98.8711 212.064C98.8586 211.859 98.7501 211.669 98.5455 211.495C98.0654 211.085 97.5806 211.155 97.0911 211.704L96.2707 211.005C96.4415 210.804 96.6369 210.643 96.8568 210.52C97.0802 210.393 97.3135 210.318 97.5569 210.295C97.8079 210.271 98.0654 210.303 98.3292 210.391C98.6008 210.479 98.8681 210.634 99.1312 210.859Z" fill="#EBECF0"/>
<path d="M100.678 217.759C100.753 217.814 100.812 217.882 100.856 217.962C100.903 218.045 100.932 218.131 100.941 218.219C100.958 218.307 100.956 218.398 100.935 218.491C100.917 218.58 100.879 218.664 100.82 218.744C100.706 218.898 100.553 218.99 100.361 219.019C100.173 219.043 100.001 218.998 99.8466 218.884C99.7672 218.825 99.7036 218.754 99.6558 218.671C99.6124 218.592 99.5822 218.508 99.5651 218.42C99.5557 218.331 99.56 218.242 99.578 218.153C99.5993 218.06 99.6376 217.976 99.6931 217.901C99.7518 217.821 99.821 217.76 99.9008 217.717C99.9838 217.669 100.068 217.639 100.152 217.626C100.244 217.612 100.333 217.616 100.419 217.639C100.512 217.66 100.599 217.7 100.678 217.759Z" fill="#EBECF0"/>
<path d="M104.755 222.269C104.463 222.085 104.23 221.863 104.056 221.603C103.883 221.344 103.774 221.055 103.73 220.734C103.693 220.413 103.724 220.066 103.824 219.693C103.928 219.324 104.107 218.938 104.362 218.534C104.618 218.131 104.889 217.806 105.175 217.559C105.469 217.31 105.766 217.137 106.067 217.042C106.375 216.945 106.682 216.922 106.987 216.972C107.296 217.018 107.596 217.134 107.888 217.318C108.18 217.503 108.413 217.725 108.587 217.984C108.763 218.239 108.871 218.525 108.911 218.842C108.958 219.158 108.93 219.5 108.826 219.869C108.729 220.237 108.554 220.622 108.298 221.026C108.043 221.429 107.768 221.755 107.474 222.004C107.185 222.256 106.885 222.433 106.574 222.535C106.27 222.635 105.964 222.662 105.656 222.616C105.347 222.57 105.047 222.454 104.755 222.269ZM105.226 221.525C105.559 221.737 105.914 221.747 106.288 221.555C106.665 221.359 107.027 220.987 107.373 220.44C107.74 219.861 107.924 219.37 107.925 218.968C107.926 218.566 107.76 218.26 107.426 218.049C107.092 217.837 106.742 217.817 106.375 217.987C106.012 218.16 105.647 218.536 105.28 219.115C104.934 219.662 104.753 220.148 104.737 220.574C104.729 220.997 104.892 221.314 105.226 221.525Z" fill="#EBECF0"/>
<path d="M114.983 227.819C114.539 227.617 114.149 227.347 113.814 227.009C113.487 226.668 113.262 226.266 113.141 225.801L114.08 225.504C114.188 225.824 114.339 226.109 114.533 226.359C114.729 226.604 115.015 226.812 115.389 226.982C115.709 227.126 116.002 227.184 116.269 227.154C116.54 227.126 116.728 226.997 116.832 226.767C116.882 226.658 116.909 226.552 116.912 226.451C116.923 226.348 116.893 226.241 116.822 226.131C116.754 226.015 116.64 225.888 116.48 225.75C116.325 225.613 116.111 225.453 115.839 225.27C115.284 224.898 114.915 224.524 114.731 224.145C114.552 223.769 114.563 223.359 114.765 222.914C114.869 222.684 115.01 222.498 115.189 222.356C115.37 222.209 115.577 222.11 115.811 222.059C116.045 222.009 116.297 222.003 116.569 222.041C116.848 222.077 117.135 222.162 117.429 222.295C117.944 222.528 118.335 222.816 118.601 223.16C118.874 223.5 119.057 223.848 119.149 224.203L118.194 224.439C118.168 224.337 118.129 224.229 118.078 224.115C118.032 224.004 117.966 223.89 117.881 223.773C117.795 223.656 117.686 223.544 117.555 223.436C117.423 223.328 117.257 223.229 117.057 223.138C116.752 223 116.486 222.949 116.259 222.985C116.039 223.018 115.882 223.139 115.787 223.349C115.744 223.444 115.721 223.536 115.717 223.625C115.72 223.71 115.755 223.805 115.823 223.908C115.896 224.013 116.009 224.13 116.161 224.259C116.313 224.389 116.518 224.541 116.775 224.718C117.37 225.12 117.758 225.515 117.937 225.904C118.117 226.292 118.102 226.716 117.894 227.176C117.783 227.421 117.633 227.621 117.442 227.775C117.257 227.932 117.039 228.041 116.788 228.102C116.54 228.159 116.264 228.163 115.96 228.116C115.654 228.074 115.328 227.975 114.983 227.819Z" fill="#EBECF0"/>
<path d="M124.372 231.3L123.205 230.896L122.279 226.326L120.966 230.121L120.017 229.793L121.9 224.349L123.044 224.744L123.951 229.421L125.299 225.525L126.256 225.856L124.372 231.3Z" fill="#EBECF0"/>
<path d="M130.777 232.032L128.548 231.484L128.038 232.35L126.943 232.081L130.157 226.939L131.508 227.271L131.97 233.317L130.827 233.036L130.777 232.032ZM129.008 230.682L130.734 231.106L130.598 227.937L129.008 230.682Z" fill="#EBECF0"/>
<path d="M137.769 228.492C138.154 228.55 138.475 228.649 138.731 228.788C138.993 228.928 139.197 229.098 139.344 229.298C139.498 229.494 139.598 229.712 139.644 229.952C139.697 230.188 139.704 230.43 139.666 230.68C139.623 230.962 139.538 231.212 139.41 231.431C139.287 231.651 139.124 231.832 138.919 231.972C138.715 232.108 138.471 232.201 138.185 232.252C137.901 232.297 137.577 232.292 137.214 232.236L136.172 232.077L135.874 234.03L134.792 233.864L135.662 228.17L137.769 228.492ZM137.407 231.35C137.543 231.371 137.673 231.374 137.797 231.36C137.921 231.345 138.033 231.307 138.131 231.244C138.235 231.182 138.324 231.091 138.398 230.969C138.472 230.847 138.524 230.691 138.553 230.501C138.596 230.219 138.546 229.981 138.404 229.787C138.262 229.588 138.037 229.465 137.728 229.418L136.605 229.246L136.309 231.182L137.407 231.35Z" fill="#EBECF0"/>
<path d="M150.351 230.335L148.705 230.311L148.633 235.141L147.539 235.125L147.611 230.294L145.965 230.27L145.979 229.34L150.365 229.405L150.351 230.335Z" fill="#EBECF0"/>
<path d="M155.458 229.015C155.775 228.991 156.102 229.018 156.438 229.096C156.779 229.169 157.093 229.313 157.379 229.527C157.666 229.742 157.908 230.037 158.108 230.412C158.307 230.782 158.429 231.251 158.473 231.82C158.514 232.351 158.469 232.813 158.34 233.209C158.211 233.598 158.024 233.924 157.78 234.185C157.542 234.445 157.26 234.646 156.935 234.786C156.61 234.927 156.273 235.011 155.923 235.038C155.606 235.062 155.279 235.035 154.943 234.957C154.606 234.878 154.295 234.732 154.009 234.517C153.723 234.303 153.48 234.01 153.281 233.641C153.081 233.265 152.96 232.796 152.916 232.232C152.875 231.696 152.919 231.234 153.049 230.844C153.178 230.449 153.361 230.121 153.6 229.86C153.844 229.599 154.126 229.402 154.446 229.267C154.77 229.126 155.108 229.042 155.458 229.015ZM155.529 229.942C155.283 229.961 155.06 230.025 154.859 230.135C154.664 230.243 154.502 230.393 154.374 230.585C154.245 230.771 154.15 230.995 154.088 231.259C154.031 231.522 154.015 231.815 154.04 232.137C154.09 232.783 154.269 233.284 154.577 233.64C154.885 233.995 155.31 234.152 155.851 234.111C156.092 234.092 156.31 234.028 156.505 233.92C156.7 233.811 156.862 233.664 156.991 233.478C157.125 233.291 157.223 233.066 157.286 232.803C157.348 232.54 157.366 232.244 157.341 231.916C157.316 231.598 157.259 231.314 157.168 231.062C157.076 230.805 156.955 230.592 156.805 230.422C156.653 230.246 156.47 230.117 156.255 230.035C156.039 229.953 155.797 229.922 155.529 229.942Z" fill="#EBECF0"/>
<path d="M165.703 231.463C165.753 231.743 165.76 232.023 165.726 232.303C165.697 232.581 165.611 232.838 165.469 233.075C165.326 233.306 165.119 233.509 164.849 233.685C164.584 233.854 164.243 233.975 163.827 234.048C163.4 234.124 163.032 234.124 162.724 234.05C162.416 233.976 162.155 233.855 161.941 233.686C161.732 233.511 161.567 233.298 161.445 233.047C161.328 232.794 161.245 232.53 161.197 232.255L160.56 228.632L161.638 228.442L162.272 232.049C162.353 232.508 162.505 232.821 162.729 232.988C162.959 233.154 163.274 233.201 163.674 233.131C164.074 233.061 164.35 232.904 164.502 232.66C164.659 232.415 164.699 232.073 164.622 231.636L163.988 228.029L165.066 227.839L165.703 231.463Z" fill="#EBECF0"/>
<path d="M170.182 226.436C170.414 226.371 170.654 226.333 170.902 226.321C171.154 226.308 171.401 226.336 171.643 226.406C171.888 226.469 172.124 226.58 172.35 226.739C172.58 226.891 172.793 227.103 172.988 227.373L172.036 227.945C171.826 227.662 171.593 227.467 171.336 227.362C171.078 227.252 170.777 227.244 170.433 227.34C169.952 227.473 169.622 227.753 169.444 228.178C169.272 228.602 169.273 229.128 169.448 229.757C169.621 230.381 169.885 230.84 170.24 231.135C170.599 231.422 171.037 231.494 171.555 231.35C171.947 231.241 172.229 231.06 172.404 230.807C172.584 230.552 172.685 230.23 172.708 229.842L173.798 229.89C173.771 230.205 173.703 230.491 173.592 230.75C173.486 231.002 173.344 231.229 173.167 231.432C172.988 231.629 172.779 231.799 172.539 231.939C172.304 232.079 172.05 232.186 171.775 232.263C171.474 232.346 171.153 232.381 170.813 232.368C170.479 232.352 170.153 232.266 169.836 232.109C169.523 231.946 169.236 231.701 168.974 231.375C168.717 231.042 168.513 230.606 168.363 230.067C168.22 229.549 168.171 229.087 168.218 228.681C168.263 228.27 168.375 227.914 168.553 227.614C168.737 227.313 168.97 227.066 169.253 226.873C169.539 226.674 169.849 226.528 170.182 226.436Z" fill="#EBECF0"/>
<path d="M181.665 228.731L180.651 229.122L179.743 226.765L177.431 227.656L178.34 230.013L177.319 230.407L175.247 225.031L176.268 224.638L177.1 226.796L179.411 225.905L178.579 223.747L179.593 223.356L181.665 228.731Z" fill="#EBECF0"/>
<path d="M187.188 219.657C187.466 219.503 187.729 219.4 187.977 219.35C188.223 219.295 188.449 219.289 188.654 219.332C188.865 219.372 189.051 219.453 189.214 219.577C189.376 219.7 189.511 219.857 189.618 220.049C189.769 220.322 189.811 220.601 189.742 220.883C189.678 221.164 189.527 221.411 189.288 221.625C189.433 221.57 189.588 221.537 189.752 221.528C189.913 221.513 190.072 221.529 190.229 221.573C190.386 221.618 190.534 221.693 190.673 221.797C190.81 221.897 190.927 222.033 191.023 222.206C191.153 222.441 191.224 222.681 191.235 222.926C191.25 223.168 191.211 223.403 191.118 223.631C191.025 223.858 190.883 224.072 190.693 224.272C190.502 224.472 190.273 224.646 190.004 224.795C189.496 225.078 189.006 225.19 188.534 225.132C188.065 225.066 187.658 224.847 187.312 224.474L188.092 223.777C188.276 223.983 188.497 224.12 188.755 224.19C189.011 224.255 189.283 224.208 189.57 224.048C189.834 223.901 190.015 223.713 190.113 223.483C190.216 223.25 190.191 222.997 190.04 222.724C189.901 222.474 189.717 222.329 189.486 222.287C189.254 222.241 189.01 222.288 188.756 222.429L188.216 222.729L187.841 222.053L188.294 221.801C188.385 221.75 188.473 221.689 188.558 221.616C188.641 221.539 188.706 221.453 188.753 221.357C188.801 221.262 188.825 221.158 188.825 221.045C188.829 220.929 188.795 220.804 188.72 220.67C188.651 220.545 188.568 220.453 188.472 220.393C188.381 220.331 188.285 220.294 188.184 220.281C188.08 220.263 187.975 220.268 187.871 220.294C187.767 220.321 187.666 220.361 187.57 220.414C187.321 220.553 187.156 220.729 187.074 220.944C186.995 221.152 186.986 221.379 187.048 221.627L186.073 221.971C186.015 221.777 185.994 221.576 186.009 221.366C186.022 221.152 186.072 220.942 186.159 220.737C186.251 220.529 186.381 220.335 186.55 220.153C186.721 219.964 186.933 219.799 187.188 219.657Z" fill="#EBECF0"/>
<path d="M192.642 218.105C192.72 218.054 192.804 218.022 192.894 218.01C192.989 217.994 193.079 217.997 193.166 218.02C193.254 218.034 193.338 218.068 193.418 218.121C193.495 218.169 193.56 218.234 193.614 218.317C193.719 218.478 193.751 218.653 193.711 218.843C193.668 219.028 193.566 219.173 193.405 219.278C193.322 219.332 193.233 219.366 193.139 219.382C193.049 219.395 192.96 219.394 192.872 219.379C192.785 219.357 192.703 219.322 192.626 219.274C192.546 219.221 192.481 219.156 192.43 219.077C192.376 218.995 192.343 218.908 192.33 218.818C192.315 218.724 192.316 218.635 192.333 218.551C192.353 218.46 192.388 218.378 192.439 218.306C192.491 218.226 192.559 218.159 192.642 218.105ZM194.257 220.589C194.335 220.538 194.42 220.506 194.509 220.493C194.604 220.478 194.694 220.481 194.781 220.503C194.869 220.518 194.953 220.552 195.033 220.604C195.11 220.652 195.176 220.718 195.23 220.8C195.334 220.961 195.367 221.137 195.326 221.327C195.283 221.512 195.181 221.657 195.02 221.761C194.937 221.815 194.849 221.85 194.754 221.866C194.664 221.878 194.575 221.877 194.487 221.863C194.401 221.84 194.319 221.805 194.242 221.757C194.162 221.704 194.096 221.639 194.045 221.561C193.992 221.478 193.958 221.392 193.946 221.302C193.93 221.207 193.931 221.118 193.949 221.035C193.968 220.944 194.003 220.862 194.054 220.789C194.107 220.709 194.175 220.642 194.257 220.589Z" fill="#EBECF0"/>
<path d="M196.307 213.727C196.544 213.549 196.783 213.424 197.024 213.352C197.262 213.275 197.493 213.249 197.717 213.272C197.94 213.296 198.148 213.366 198.339 213.483C198.535 213.596 198.707 213.752 198.856 213.949C199.031 214.181 199.153 214.439 199.223 214.723C199.29 215.003 199.313 215.312 199.293 215.65C199.275 215.98 199.214 216.342 199.112 216.735C199.01 217.128 198.878 217.554 198.716 218.013L200.818 216.427L201.339 217.117L198.106 219.555L197.601 218.885C197.788 218.277 197.94 217.75 198.057 217.304C198.175 216.85 198.252 216.456 198.287 216.12C198.323 215.784 198.316 215.497 198.267 215.259C198.218 215.021 198.121 214.806 197.975 214.613C197.81 214.394 197.628 214.271 197.428 214.243C197.225 214.21 197.016 214.275 196.801 214.437C196.298 214.817 196.261 215.305 196.69 215.902L195.83 216.551C195.671 216.341 195.556 216.115 195.484 215.874C195.408 215.629 195.386 215.385 195.416 215.142C195.447 214.892 195.534 214.647 195.677 214.409C195.821 214.163 196.031 213.935 196.307 213.727Z" fill="#EBECF0"/>
<path d="M204.279 206.776C204.556 206.501 204.826 206.302 205.09 206.178C205.358 206.051 205.616 205.988 205.864 205.988C206.112 205.981 206.347 206.03 206.568 206.135C206.789 206.233 206.988 206.371 207.166 206.55C207.368 206.752 207.518 206.97 207.619 207.203C207.723 207.432 207.771 207.671 207.762 207.919C207.75 208.163 207.68 208.415 207.551 208.675C207.419 208.931 207.222 209.188 206.962 209.447L206.215 210.191L207.608 211.59L206.832 212.363L202.769 208.28L204.279 206.776ZM206.364 208.765C206.461 208.668 206.541 208.566 206.603 208.457C206.665 208.349 206.701 208.236 206.709 208.12C206.721 208 206.7 207.874 206.646 207.742C206.592 207.61 206.497 207.476 206.361 207.339C206.16 207.137 205.939 207.036 205.699 207.035C205.454 207.031 205.221 207.139 205 207.36L204.195 208.161L205.576 209.549L206.364 208.765Z" fill="#EBECF0"/>
<path d="M212.714 206.163L211.996 206.989L207.648 203.21L208.366 202.384L212.714 206.163Z" fill="#EBECF0"/>
<path d="M211.699 197.995C211.843 197.801 212.009 197.624 212.197 197.463C212.388 197.297 212.6 197.168 212.834 197.075C213.066 196.974 213.32 196.916 213.597 196.903C213.872 196.882 214.169 196.918 214.489 197.012L214.089 198.048C213.75 197.953 213.446 197.943 213.179 198.018C212.907 198.089 212.665 198.268 212.453 198.555C212.155 198.955 212.066 199.378 212.187 199.823C212.311 200.264 212.635 200.679 213.159 201.068C213.679 201.454 214.17 201.654 214.63 201.668C215.09 201.674 215.48 201.462 215.801 201.03C216.043 200.704 216.155 200.388 216.137 200.08C216.122 199.769 216.005 199.453 215.785 199.133L216.674 198.501C216.847 198.766 216.969 199.034 217.04 199.306C217.111 199.57 217.138 199.836 217.123 200.105C217.104 200.371 217.042 200.633 216.939 200.891C216.84 201.145 216.705 201.387 216.535 201.616C216.348 201.867 216.117 202.091 215.84 202.289C215.567 202.483 215.257 202.615 214.91 202.685C214.563 202.749 214.186 202.732 213.779 202.635C213.372 202.531 212.943 202.312 212.494 201.978C212.062 201.657 211.74 201.323 211.528 200.974C211.311 200.621 211.181 200.272 211.138 199.925C211.097 199.575 211.13 199.236 211.235 198.911C211.338 198.578 211.493 198.273 211.699 197.995Z" fill="#EBECF0"/>
<path d="M217.686 190.858L216.83 192.264L220.957 194.775L220.388 195.71L216.261 193.199L215.406 194.605L214.611 194.122L216.892 190.375L217.686 190.858Z" fill="#EBECF0"/>
<path d="M223.435 185.704C223.691 185.83 223.921 185.989 224.126 186.181C224.333 186.369 224.49 186.59 224.598 186.844C224.7 187.096 224.742 187.383 224.725 187.705C224.705 188.019 224.601 188.366 224.415 188.745C224.224 189.134 224.007 189.431 223.766 189.636C223.524 189.841 223.272 189.98 223.01 190.053C222.745 190.119 222.476 190.126 222.2 190.077C221.928 190.022 221.666 189.933 221.415 189.809L218.114 188.186L218.597 187.204L221.883 188.82C222.302 189.026 222.644 189.087 222.911 189.005C223.181 188.917 223.405 188.691 223.584 188.327C223.763 187.963 223.799 187.647 223.692 187.38C223.587 187.109 223.335 186.875 222.937 186.679L219.651 185.062L220.134 184.08L223.435 185.704Z" fill="#EBECF0"/>
<path d="M222.03 179.486C222.167 179.127 222.329 178.836 222.514 178.613C222.701 178.385 222.9 178.218 223.111 178.111C223.324 177.998 223.546 177.942 223.775 177.941C223.999 177.939 224.221 177.98 224.442 178.064C224.805 178.203 225.079 178.417 225.263 178.704C225.444 178.985 225.525 179.339 225.509 179.767L228.302 179.214L227.846 180.405L225.274 180.841L224.948 181.694L227.047 182.496L226.656 183.519L221.275 181.461L222.03 179.486ZM222.519 180.765L224.133 181.382L224.518 180.375C224.567 180.247 224.601 180.122 224.618 179.999C224.635 179.877 224.629 179.763 224.599 179.657C224.566 179.545 224.507 179.446 224.422 179.361C224.334 179.268 224.208 179.191 224.044 179.128C223.782 179.028 223.557 179.033 223.368 179.143C223.174 179.251 223.023 179.448 222.913 179.735L222.519 180.765Z" fill="#EBECF0"/>
<path d="M225.558 171.568L224.83 174.116L226.223 174.513L226.903 172.131L227.774 172.38L227.093 174.762L228.597 175.191L229.345 172.572L230.231 172.825L229.183 176.497L223.643 174.915L224.672 171.314L225.558 171.568Z" fill="#EBECF0"/>
<defs>
<linearGradient id="paint0_linear_56_1011" x1="150" y1="0" x2="150" y2="300" gradientUnits="userSpaceOnUse">
<stop stop-color="#1B1E22"/>
<stop offset="1" stop-color="#1F2024"/>
</linearGradient>
<linearGradient id="paint1_linear_56_1011" x1="150" y1="0" x2="150" y2="300" gradientUnits="userSpaceOnUse">
<stop stop-color="#27282C"/>
<stop offset="1" stop-color="#1D1E22"/>
</linearGradient>
<linearGradient id="paint2_linear_56_1011" x1="150" y1="0" x2="150" y2="300" gradientUnits="userSpaceOnUse">
<stop stop-color="#222328"/>
<stop offset="0.0677083" stop-color="#282832"/>
<stop offset="1" stop-color="#2B3036"/>
</linearGradient>
</defs>
</svg>
